<svg width="161" height="30" viewBox="0 0 161 30" fill="none" xmlns="http://www.w3.org/2000/svg">
<path d="M11.2383 18.0456C11.2383 18.9508 10.9146 19.6759 10.2678 20.2387C9.62041 20.8015 8.7746 21.08 7.73097 21.08C6.14124 21.08 5.34698 20.4535 5.34698 19.2003C5.34698 18.5852 5.57358 18.1153 6.02795 17.7846C6.48173 17.4538 7.2652 17.1695 8.37777 16.9258C9.7403 16.5951 10.694 16.2993 11.2383 16.0382V18.0456ZM16.5506 21.4398V12.9399C16.5506 10.7642 15.8127 9.15702 14.3374 8.12427C13.0654 7.20176 11.182 6.74336 8.68409 6.74336C6.18681 6.74336 4.262 7.28876 2.91145 8.39114C1.56151 9.48771 0.851767 10.8744 0.78403 12.5395H5.89248C6.07351 11.0891 7.01583 10.3696 8.71825 10.3696C10.3074 10.3696 11.1022 10.9731 11.1022 12.1799C11.1022 12.7311 10.7905 13.1314 10.1659 13.3808C9.54069 13.6361 8.37777 13.8624 6.67476 14.0596C4.5857 14.3207 2.95161 14.8429 1.77131 15.6262C0.590408 16.4036 -4.57764e-05 17.6511 -4.57764e-05 19.3626C-4.57764e-05 20.993 0.545449 22.2579 1.63524 23.1572C2.72502 24.0565 4.16548 24.5091 5.96021 24.5091C8.29744 24.5091 10.0232 23.7374 11.1364 22.1998H11.2047C11.3624 23.1456 11.556 23.7722 11.7832 24.0797H17.1638V23.8476C16.7556 23.5865 16.5506 22.7801 16.5506 21.4398" fill="#FDFCF7"/>
<path d="M21.2155 2.06121C20.2618 2.98372 19.7852 4.28914 19.7852 5.98332V7.20173H17.5373V10.6307H19.7852V24.0797H25.3361V10.6307H28.6054V7.20173H25.3361V6.3779C25.3361 5.5018 25.586 4.93901 26.0854 4.69533C26.5853 4.45745 27.4251 4.35872 28.6054 4.39934V0.610715C25.0639 0.256795 22.6002 0.744161 21.2155 2.06121" fill="#FDFCF7"/>
<path d="M37.6199 1.86396H32.2051V7.20177H29.8889V10.5669H32.2051V19.6296C32.2051 21.3411 32.6871 22.548 33.6522 23.2384C34.6173 23.9289 35.9852 24.277 37.756 24.277C39.1407 24.277 40.1507 24.19 40.7873 24.0159V20.0879C40.7412 20.0879 40.5709 20.0938 40.2766 20.1054C39.9811 20.117 39.7425 20.1227 39.5609 20.1227C38.9249 20.1227 38.4423 20.0009 38.1138 19.763C37.7841 19.5194 37.6199 19.0901 37.6199 18.4751V10.5669H40.7873V7.20177H37.6199V1.86396" fill="#FDFCF7"/>
<path d="M46.6924 13.8284C47.1013 11.6294 48.2936 10.5329 50.2681 10.5329C51.1757 10.5329 51.931 10.8287 52.5328 11.4205C53.134 12.0181 53.4799 12.8188 53.5711 13.8284H46.6924ZM56.1253 8.82133C54.5367 7.41145 52.5502 6.70939 50.1662 6.70939C47.5322 6.70939 45.3815 7.55643 43.7126 9.2448C42.0438 10.939 41.2093 13.0568 41.2093 15.6096C41.2093 18.2263 42.0551 20.3731 43.7468 22.0498C45.4372 23.7324 47.6917 24.5737 50.5061 24.5737C52.6179 24.5737 54.4337 24.0572 55.955 23.0245C57.4986 21.9917 58.4751 20.6631 58.8845 19.0386H53.4691C52.9692 20.1584 52.0047 20.7154 50.5744 20.7154C49.4613 20.7154 48.5765 20.3962 47.9183 19.7464C47.2595 19.0966 46.8399 18.1915 46.6577 17.0253H59.1902C59.2352 13.3991 58.2137 10.6664 56.1253 8.82133" fill="#FDFCF7"/>
<path d="M66.1546 9.84163H66.0527V7.20173H60.7398V24.0797H66.2912V16.4964C66.2912 14.6978 66.79 13.3809 67.7892 12.557C68.7879 11.7331 70.1499 11.443 71.8756 11.6867H72.0117V7.07414C71.8073 6.9813 71.444 6.94065 70.9219 6.94065C68.9246 6.94065 67.3349 7.90377 66.1546 9.84163Z" fill="#FDFCF7"/>
<path d="M85.3475 19.218C84.745 20.0419 83.9112 20.4539 82.8442 20.4539C81.6633 20.4539 80.7437 20.0303 80.0856 19.1832C79.4268 18.342 79.0977 17.2222 79.0977 15.8413C79.0977 14.4082 79.416 13.2536 80.0514 12.3601C80.6868 11.4724 81.5842 11.0257 82.7411 11.0257C83.8998 11.0257 84.7738 11.455 85.3643 12.3137C85.9541 13.1724 86.2496 14.3444 86.2496 15.8413C86.2496 17.2686 85.9487 18.3942 85.3475 19.218ZM84.4111 6.709C82.231 6.709 80.4716 7.55604 79.1325 9.24442H79.0305V7.20217H73.7177V29.65H79.2685V22.3338H79.3363C80.4944 23.8481 82.1398 24.6081 84.2745 24.6081C86.5673 24.6081 88.4064 23.7958 89.7905 22.1655C91.1758 20.5409 91.8688 18.3652 91.8688 15.6383C91.8688 13.0506 91.1926 10.9096 89.8427 9.23286C88.4915 7.55029 86.6806 6.709 84.4111 6.709" fill="#FDFCF7"/>
<path d="M98.9656 9.84163H98.8637V7.20173H93.5514V24.0797H99.1023V16.4964C99.1023 14.6978 99.601 13.3809 100.601 12.557C101.599 11.7331 102.961 11.443 104.687 11.6867H104.823V7.07414C104.619 6.9813 104.256 6.94065 103.734 6.94065C101.736 6.94065 100.146 7.90377 98.9656 9.84163" fill="#FDFCF7"/>
<path d="M106.393 24.0797H111.944V7.20173H106.393V24.0797Z" fill="#FDFCF7"/>
<path d="M115.281 0.349999H108.879L106.938 5.22366H111.161L115.281 0.349999" fill="#FDFCF7"/>
<path d="M135.53 6.70857C133.191 6.70857 131.364 7.69488 130.047 9.67335H129.979C129.002 7.69488 127.368 6.70857 125.075 6.70857C122.76 6.70857 121 7.6775 119.797 9.60955H119.695V7.20173H114.383V24.0797H119.933V14.6167C119.933 13.5839 120.177 12.7542 120.665 12.1334C121.153 11.5068 121.828 11.1935 122.691 11.1935C124.326 11.1935 125.143 12.145 125.143 14.0596V24.0797H130.694V14.6167C130.694 13.5839 130.938 12.7542 131.426 12.1334C131.915 11.5068 132.589 11.1935 133.453 11.1935C135.087 11.1935 135.904 12.145 135.904 14.0596V24.0797H141.456V13.1023C141.456 11.147 140.95 9.59219 139.94 8.4376C138.93 7.28301 137.46 6.70857 135.53 6.70857" fill="#FDFCF7"/>
<path d="M148.405 13.8284C148.814 11.6294 150.006 10.5329 151.981 10.5329C152.888 10.5329 153.644 10.8287 154.246 11.4205C154.847 12.0181 155.193 12.8188 155.284 13.8284H148.405ZM157.838 8.82133C156.25 7.41145 154.263 6.70939 151.879 6.70939C149.245 6.70939 147.094 7.55643 145.425 9.2448C143.757 10.939 142.922 13.0568 142.922 15.6096C142.922 18.2263 143.768 20.3731 145.46 22.0498C147.151 23.7324 149.404 24.5737 152.219 24.5737C154.331 24.5737 156.147 24.0572 157.668 23.0245C159.211 21.9917 160.188 20.6631 160.597 19.0386H155.182C154.683 20.1584 153.717 20.7154 152.287 20.7154C151.175 20.7154 150.289 20.3962 149.631 19.7464C148.972 19.0966 148.553 18.1915 148.371 17.0253H160.904C160.949 13.3991 159.927 10.6664 157.838 8.82133" fill="#FDFCF7"/>
<path d="M14.4623 1.00008H7.57954L6 4.14471H12.9194L14.4623 1.00008Z" fill="#FDFCF7"/>
</svg>
