<svg width="20" height="12" viewBox="0 0 20 12" fill="none" xmlns="http://www.w3.org/2000/svg">
<path d="M7.70096 7.5C7.5 7.84808 7.5 8.31539 7.5 9.25C7.5 10.1846 7.5 10.6519 7.70096 11C7.83261 11.228 8.02197 11.4174 8.25 11.549C8.59808 11.75 9.06538 11.75 10 11.75C10.9346 11.75 11.4019 11.75 11.75 11.549C11.978 11.4174 12.1674 11.228 12.299 11C12.5 10.6519 12.5 10.1846 12.5 9.25C12.5 8.31539 12.5 7.84808 12.299 7.5C12.1674 7.27197 11.978 7.08262 11.75 6.95096C11.4019 6.75 10.9346 6.75 10 6.75C9.06538 6.75 8.59808 6.75 8.25 6.95096C8.02197 7.08262 7.83261 7.27197 7.70096 7.5Z" fill="#F4F4FA" fill-opacity="0.6"/>
<path d="M15 9.25C15 8.31539 15 7.84808 15.201 7.5C15.3326 7.27197 15.522 7.08262 15.75 6.95096C16.0981 6.75 16.5654 6.75 17.5 6.75C18.4346 6.75 18.9019 6.75 19.25 6.95096C19.478 7.08262 19.6674 7.27197 19.799 7.5C20 7.84808 20 8.31539 20 9.25C20 10.1846 20 10.6519 19.799 11C19.6674 11.228 19.478 11.4174 19.25 11.549C18.9019 11.75 18.4346 11.75 17.5 11.75C16.5654 11.75 16.0981 11.75 15.75 11.549C15.522 11.4174 15.3326 11.228 15.201 11C15 10.6519 15 10.1846 15 9.25Z" fill="#F4F4FA" fill-opacity="0.6"/>
<path d="M0.200962 7.5C0 7.84808 0 8.31539 0 9.25C0 10.1846 0 10.6519 0.200962 11C0.332614 11.228 0.521971 11.4174 0.75 11.549C1.09808 11.75 1.56538 11.75 2.5 11.75C3.43462 11.75 3.90192 11.75 4.25 11.549C4.47803 11.4174 4.66739 11.228 4.79904 11C5 10.6519 5 10.1846 5 9.25C5 8.31539 5 7.84808 4.79904 7.5C4.66739 7.27197 4.47803 7.08262 4.25 6.95096C3.90192 6.75 3.43462 6.75 2.5 6.75C1.56538 6.75 1.09808 6.75 0.75 6.95096C0.521971 7.08262 0.332614 7.27197 0.200962 7.5Z" fill="#F4F4FA" fill-opacity="0.6"/>
<path d="M4.20096 0.75C4 1.09808 4 1.56538 4 2.5C4 3.43462 4 3.90192 4.20096 4.25C4.33261 4.47803 4.52197 4.66738 4.75 4.79904C5.09808 5 5.56538 5 6.5 5C7.43462 5 7.90192 5 8.25 4.79904C8.47803 4.66738 8.66739 4.47803 8.79904 4.25C9 3.90192 9 3.43462 9 2.5C9 1.56538 9 1.09808 8.79904 0.75C8.66739 0.521971 8.47803 0.332614 8.25 0.200962C7.90192 0 7.43462 0 6.5 0C5.56538 0 5.09808 0 4.75 0.200962C4.52197 0.332614 4.33261 0.521971 4.20096 0.75Z" fill="#F4F4FA" fill-opacity="0.6"/>
<path d="M11.701 0.75C11.5 1.09808 11.5 1.56538 11.5 2.5C11.5 3.43462 11.5 3.90192 11.701 4.25C11.8326 4.47803 12.022 4.66738 12.25 4.79904C12.5981 5 13.0654 5 14 5C14.9346 5 15.4019 5 15.75 4.79904C15.978 4.66738 16.1674 4.47803 16.299 4.25C16.5 3.90192 16.5 3.43462 16.5 2.5C16.5 1.56538 16.5 1.09808 16.299 0.75C16.1674 0.521971 15.978 0.332614 15.75 0.200962C15.4019 0 14.9346 0 14 0C13.0654 0 12.5981 0 12.25 0.200962C12.022 0.332614 11.8326 0.521971 11.701 0.75Z" fill="#F4F4FA" fill-opacity="0.6"/>
</svg>
