<svg width="29" height="28" viewBox="0 0 29 28" fill="none" xmlns="http://www.w3.org/2000/svg">
<path fill-rule="evenodd" clip-rule="evenodd" d="M13.1695 0.0339773C8.78813 0.489297 4.94824 2.87225 2.61562 6.5836C-0.692544 11.8471 -0.0679988 18.8353 4.11751 23.3882C6.44378 25.9187 9.32472 27.4237 12.7856 27.9163C13.4361 28.0089 15.5876 28.0074 16.2632 27.9139C19.6716 27.4421 22.5502 25.9405 24.8725 23.4228C26.7846 21.3501 28.0063 18.7058 28.4312 15.7209C28.5229 15.0766 28.5229 12.9149 28.4312 12.2707C28.1073 9.99489 27.3866 8.06019 26.1893 6.25199C25.6801 5.48298 25.1715 4.86254 24.463 4.14593C22.2737 1.9316 19.5714 0.568817 16.4549 0.107363C15.783 0.00785419 13.8387 -0.0355201 13.1695 0.0339773ZM11.9371 6.82232C12.1802 7.30678 12.2266 7.36762 12.3347 7.34369C13.1419 7.16488 15.8967 7.1645 16.6867 7.34314C16.7949 7.36762 16.8409 7.30727 17.0854 6.82013L17.3617 6.26946L17.5654 6.30271C18.4449 6.44608 20.0471 6.92588 21.0443 7.34446C21.5124 7.54095 21.5339 7.55799 21.7895 7.93718C22.6601 9.22833 23.5129 11.0575 23.963 12.5993C24.1886 13.3718 24.4432 14.6099 24.5429 15.4197C24.6192 16.0387 24.6413 18.6545 24.5729 18.9806C24.5369 19.1527 24.4603 19.2211 23.8618 19.616C22.639 20.4228 21.532 20.9808 20.1935 21.4653C19.8099 21.6041 19.4747 21.7177 19.4487 21.7177C19.3618 21.7177 18.3443 20.0931 18.3443 19.9543C18.3443 19.9384 18.4613 19.8814 18.6044 19.8276C18.985 19.6846 19.9177 19.212 19.9626 19.1393C20.0014 19.0765 19.7372 18.8209 19.6296 18.8171C19.5986 18.816 19.3739 18.8992 19.1303 19.0019C17.672 19.617 16.1795 19.9134 14.5409 19.9134C12.7633 19.9133 11.488 19.6457 9.54833 18.8654C9.39663 18.8044 9.35906 18.8103 9.20604 18.9192C9.11146 18.9866 9.03413 19.073 9.03413 19.1113C9.03413 19.1496 9.40479 19.3594 9.85786 19.5775L10.6815 19.9741L10.4803 20.3393C10.2029 20.8424 9.62516 21.7177 9.57034 21.7177C9.46683 21.7177 8.13127 21.2084 7.56614 20.9534C6.27598 20.3713 4.51653 19.2889 4.44659 19.0342C4.36532 18.7384 4.40881 15.9613 4.50607 15.2371C4.68154 13.9301 4.98948 12.6913 5.45444 11.4218C5.70697 10.7324 6.64285 8.84974 7.07435 8.16325C7.41165 7.62655 7.42677 7.61155 7.82929 7.41368C8.38363 7.14122 9.74351 6.69105 10.6934 6.46553C11.1212 6.36399 11.5141 6.27932 11.5665 6.27735C11.6338 6.27489 11.7429 6.43524 11.9371 6.82232ZM10.5261 12.8493C9.26645 13.3478 8.93835 15.272 9.94182 16.2755C10.2845 16.6182 10.575 16.7477 11.0663 16.7771C11.4323 16.7989 11.5229 16.7841 11.8121 16.6543C13.2924 15.99 13.3569 13.6521 11.9152 12.9159C11.5264 12.7173 10.9315 12.6887 10.5261 12.8493ZM17.2524 12.8529C16.4642 13.1643 15.932 14.1922 16.0911 15.0956C16.173 15.5604 16.376 15.9735 16.6643 16.2619C17.0206 16.6182 17.3062 16.7474 17.8025 16.7771C18.1703 16.7991 18.2584 16.7843 18.5554 16.6511C19.1299 16.3932 19.534 15.839 19.6647 15.1295C19.8268 14.25 19.4119 13.3354 18.6671 12.93C18.2685 12.7131 17.6865 12.6814 17.2524 12.8529Z" fill="white"/>
</svg>
