<svg width="29" height="29" viewBox="0 0 29 29" fill="none" xmlns="http://www.w3.org/2000/svg">
<path fill-rule="evenodd" clip-rule="evenodd" d="M13.4019 0.0290541C10.9814 0.235503 8.66175 1.06124 6.7037 2.41336C5.80812 3.03181 5.38094 3.39646 4.5468 4.25476C2.93141 5.91694 1.85392 7.72438 1.14869 9.9548C0.689613 11.4067 0.502167 12.6598 0.500029 14.2903C0.498549 15.4856 0.553139 16.075 0.764757 17.1484C1.89377 22.8745 6.29839 27.3183 11.9226 28.4056L12.3023 28.479V23.4722V18.4653H10.521H8.73969V16.3918V14.3184H10.521H12.3023V12.3388C12.3023 10.1134 12.3455 9.68548 12.6623 8.77725C13.2707 7.03257 14.6576 5.91588 16.5715 5.62974C17.171 5.54013 18.9881 5.58816 19.9892 5.72002L20.7429 5.81932V7.59487V9.37042L19.5782 9.40057C18.5748 9.42657 18.3645 9.44776 18.0601 9.55328C17.619 9.70615 17.3609 9.89361 17.1056 10.2464C16.7591 10.7252 16.7298 10.9035 16.7008 12.7072L16.6749 14.3184H18.6266C20.3412 14.3184 20.5784 14.3288 20.5784 14.404C20.5784 14.4966 20.0495 18.0571 19.9981 18.3112L19.9668 18.4653H18.3269H16.687V23.474V28.4828L16.9473 28.4304C19.5009 27.917 21.5522 26.9384 23.4646 25.3211C27.5817 21.8393 29.3837 16.1906 28.084 10.841C26.7071 5.17375 22.0039 0.87239 16.3581 0.117148C15.5482 0.00882394 14.1334 -0.0333737 13.4019 0.0290541Z" fill="white"/>
</svg>
