<svg width="41" height="33" viewBox="0 0 41 33" fill="none" xmlns="http://www.w3.org/2000/svg">
<path fill-rule="evenodd" clip-rule="evenodd" d="M6.34335 5.69207C6.74427 5.01572 7.35432 4.48911 8.08084 4.19222C16.2411 0.885144 25.3628 0.885144 33.5231 4.19222C34.2496 4.48911 34.8597 5.01572 35.2606 5.69207C38.9438 11.9523 40.5455 19.2257 39.8339 26.4596C39.725 27.5461 39.1105 28.517 38.1766 29.0782C36.8367 29.875 35.4437 30.5782 34.0074 31.183C32.3426 31.8932 30.4117 31.2321 29.5273 29.6492C28.9893 28.6725 28.4957 27.6691 28.0463 26.6389C23.2741 27.6945 18.3299 27.6945 13.5577 26.6389C13.1077 27.6674 12.6141 28.6708 12.0767 29.6492C11.1923 31.2321 9.26137 31.8932 7.59653 31.1831C6.16029 30.5783 4.76727 29.875 3.42734 29.0783C2.49346 28.517 1.87897 27.5461 1.76998 26.4596C1.05844 19.2257 2.66016 11.9523 6.34335 5.69207Z" stroke="white" stroke-width="1.96" stroke-linecap="round" stroke-linejoin="round"/>
<path fill-rule="evenodd" clip-rule="evenodd" d="M26.7596 17.2574C26.7587 17.5024 26.5607 17.7004 26.3172 17.6998C26.0737 17.6991 25.8767 17.5002 25.877 17.2551C25.8773 17.0101 26.0748 16.8116 26.3183 16.8116C26.4359 16.8109 26.5487 16.8577 26.6317 16.9415C26.7146 17.0253 26.7607 17.1391 26.7596 17.2574Z" stroke="white" stroke-width="1.96" stroke-linecap="round" stroke-linejoin="round"/>
<path fill-rule="evenodd" clip-rule="evenodd" d="M16.1682 17.2574C16.1673 17.5024 15.9693 17.7004 15.7258 17.6998C15.4822 17.6991 15.2853 17.5002 15.2856 17.2551C15.2859 17.0101 15.4834 16.8116 15.7269 16.8116C15.8444 16.8109 15.9573 16.8577 16.0402 16.9415C16.1232 17.0253 16.1693 17.1391 16.1682 17.2574Z" stroke="white" stroke-width="1.96" stroke-linecap="round" stroke-linejoin="round"/>
</svg>
