<svg width="39" height="40" viewBox="0 0 39 40" fill="none" xmlns="http://www.w3.org/2000/svg">
<path d="M15.451 11.5586L11.6537 15.206L9.37199 13.0176M23.1512 11.856C22.6869 6.33246 18.1557 2.02867 12.6045 1.83856C7.05338 1.64844 2.23721 5.63211 1.39455 11.1109C0.55188 16.5896 3.94912 21.8313 9.30189 23.3113M22.5433 34.2552V37.293C22.5433 37.6841 22.7683 38.0403 23.1215 38.2082C23.4747 38.3761 23.893 38.3257 24.1962 38.0787L28.8911 34.2552H33.6882C35.9264 34.2552 37.7409 32.4406 37.7409 30.2021V22.0959C37.7409 19.8575 35.9264 18.0428 33.6882 18.0428H19.5037C17.2655 18.0428 15.451 19.8575 15.451 22.0959V30.2021C15.451 32.4406 17.2655 34.2552 19.5037 34.2552H22.5433Z" stroke="white" stroke-width="1.9197" stroke-linecap="round" stroke-linejoin="round"/>
</svg>
