<svg width="42" height="43" viewBox="0 0 42 43" fill="none" xmlns="http://www.w3.org/2000/svg">
<path d="M16.4011 16.1859C16.9012 13.9234 18.8642 12.3548 21.0748 12.4511C23.5489 12.3072 25.6699 14.2863 25.8238 16.8824C25.8238 20.2145 21.2859 21.3136 21.2859 23.5293M21.6667 29.6264C21.6665 29.7794 21.5424 29.9033 21.3895 29.9032C21.2365 29.9031 21.1125 29.7791 21.1125 29.6262C21.1124 29.4732 21.2363 29.3491 21.3892 29.3489C21.4629 29.3488 21.5335 29.378 21.5856 29.4301C21.6376 29.4822 21.6668 29.5528 21.6667 29.6264ZM4.99774 32.8789C-0.856849 24.5223 0.647678 13.0769 8.46303 6.51728C16.2784 -0.0423245 27.8113 0.460456 35.0262 7.67531C42.241 14.8902 42.7438 26.4231 36.1842 34.2384C29.6246 42.0538 18.1792 43.5583 9.82261 37.7037L3.61928 39.0822L4.99774 32.8789Z" stroke="white" stroke-width="1.9197" stroke-linecap="round" stroke-linejoin="round"/>
</svg>
