<svg width="29" height="28" viewBox="0 0 29 28" fill="none" xmlns="http://www.w3.org/2000/svg">
<path fill-rule="evenodd" clip-rule="evenodd" d="M13.1709 0.0339743C8.78988 0.489254 4.95034 2.872 2.61792 6.58301C-0.689068 11.8447 -0.0718615 18.794 4.10911 23.3717C6.42296 25.9052 9.31673 27.4199 12.787 27.9138C13.4348 28.0061 15.5879 28.0049 16.2643 27.912C19.4336 27.4765 22.2721 26.0717 24.4309 23.8702C25.1394 23.1477 25.2903 22.9749 25.7602 22.3486C27.1606 20.482 28.0775 18.2064 28.4313 15.7195C28.5229 15.0752 28.5229 12.9136 28.4312 12.2696C28.1952 10.6117 27.7661 9.19914 27.0777 7.81376C26.3482 6.34595 25.5997 5.29953 24.4345 4.11884C22.2732 1.92858 19.567 0.568 16.4559 0.107353C15.7842 0.00785349 13.84 -0.0355169 13.1709 0.0339743ZM9.55609 6.08699C9.94407 6.22307 10.409 6.69735 10.5445 7.09524C10.8611 8.02546 10.4296 9.00836 9.56211 9.33292C8.53984 9.71543 7.49638 9.39776 7.03415 8.56332C6.88574 8.29532 6.87282 8.22829 6.87282 7.72444C6.87282 7.26484 6.89221 7.14064 6.9934 6.95144C7.25089 6.47021 7.62972 6.16535 8.15581 6.01608C8.4784 5.92457 9.19675 5.96093 9.55609 6.08699ZM19.9606 10.7937C20.5158 10.9444 21.1267 11.2976 21.5213 11.6959C21.9434 12.1219 22.1957 12.5299 22.4077 13.1293C22.7121 13.9893 22.726 14.1951 22.726 17.8349V21.1682H21.0284H19.3309L19.3299 18.17C19.3292 15.8035 19.3127 15.0952 19.2518 14.8081C19.1106 14.1418 18.8436 13.7573 18.3563 13.5184C17.9222 13.3056 17.3101 13.3015 16.8666 13.5084C16.4719 13.6925 16.1431 14.0303 15.9225 14.4783L15.744 14.8408L15.7264 18.0045L15.7088 21.1682H14.0151H12.3215V16.0207V10.8732H14.0191H15.7167L15.7184 11.5988L15.7201 12.3243L15.8589 12.16C15.9352 12.0697 16.094 11.881 16.2117 11.7407C16.6087 11.2679 17.4001 10.8354 18.0998 10.7088C18.4872 10.6388 19.5723 10.6882 19.9606 10.7937ZM10.4462 16.0344L10.4602 21.1682H8.73496H7.00972V16.0572C7.00972 13.2461 7.02648 10.9294 7.04701 10.9089C7.06749 10.8884 7.83759 10.8782 8.75828 10.8861L10.4323 10.9006L10.4462 16.0344Z" fill="white"/>
</svg>
