<svg width="29" height="28" viewBox="0 0 29 28" fill="none" xmlns="http://www.w3.org/2000/svg">
<path fill-rule="evenodd" clip-rule="evenodd" d="M13.1709 0.0339957C8.78988 0.489562 4.95034 2.87381 2.61792 6.58716C-0.689068 11.8522 -0.0718615 18.8058 4.10911 23.3865C6.42296 25.9216 9.31673 27.4371 12.787 27.9315C13.4348 28.0237 15.5879 28.0226 16.2643 27.9296C19.4336 27.4938 22.2721 26.0881 24.4309 23.8853C25.1394 23.1623 25.2903 22.9894 25.7602 22.3627C27.1606 20.4949 28.0775 18.2179 28.4313 15.7294C28.5229 15.0847 28.5229 12.9217 28.4312 12.2773C28.1952 10.6184 27.7661 9.20495 27.0777 7.81868C26.3482 6.34996 25.5997 5.30288 24.4345 4.12144C22.2732 1.9298 19.567 0.568358 16.4559 0.107421C15.7842 0.00785844 13.84 -0.0355393 13.1709 0.0339957ZM17.8155 6.00338C19.3896 6.10535 20.31 6.45034 21.1518 7.2538C22.0071 8.07019 22.4017 9.073 22.5069 10.6977C22.5762 11.7682 22.5761 16.2102 22.5067 17.2977C22.4022 18.9379 21.9992 19.9521 21.1223 20.782C20.306 21.5546 19.3622 21.9031 17.8155 22.0033C16.7648 22.0714 12.2591 22.0714 11.2083 22.0033C9.63429 21.9014 8.71387 21.5564 7.87204 20.7529C7.01673 19.9365 6.62213 18.9337 6.51699 17.309C6.44821 16.2465 6.44859 11.6772 6.51759 10.6664C6.62706 9.06182 7.02303 8.06417 7.87204 7.2538C8.6797 6.48294 9.65061 6.10283 11.0551 6.00754C11.9808 5.94475 16.8644 5.94173 17.8155 6.00338ZM12.5132 7.43408C10.8681 7.46372 10.6026 7.48082 10.2327 7.58104C9.06784 7.89671 8.40656 8.55875 8.09464 9.72144C7.99541 10.0914 7.97827 10.3658 7.94777 12.0718C7.92882 13.1342 7.92882 14.8726 7.94777 15.9349C7.97827 17.6409 7.99541 17.9153 8.09464 18.2853C8.40667 19.4484 9.07031 20.1125 10.2327 20.4247C10.6024 20.524 10.8767 20.5411 12.5816 20.5716C13.6433 20.5906 15.3806 20.5906 16.4422 20.5716C18.1612 20.5409 18.4194 20.5245 18.8004 20.4223C19.9345 20.118 20.6213 19.431 20.9274 18.2946C21.0305 17.912 21.0463 17.6607 21.0767 15.9349C21.0953 14.8726 21.0953 13.1341 21.0767 12.0718C21.0466 10.3598 21.0299 10.0927 20.9298 9.72144C20.6155 8.55617 19.9495 7.89041 18.7911 7.58356C18.3642 7.47052 18.2511 7.4652 15.169 7.4138C14.7323 7.40652 13.5372 7.41561 12.5132 7.43408ZM19.1493 8.80132C19.3591 8.88061 19.6024 9.11705 19.6935 9.33032C19.9581 9.94912 19.4858 10.6609 18.8106 10.6609C18.2946 10.6609 17.8523 10.2207 17.8523 9.70725C17.8523 9.04374 18.533 8.56828 19.1493 8.80132ZM15.8405 10.0962C16.5027 10.3287 16.8704 10.5602 17.3901 11.0718C17.894 11.5678 18.2089 12.0622 18.4373 12.7157C18.5795 13.1229 18.5904 13.2144 18.5904 14.0034C18.5904 14.7923 18.5795 14.8838 18.4373 15.291C18.2165 15.9227 17.8932 16.4373 17.4188 16.912C16.9443 17.3868 16.4301 17.7103 15.7988 17.9312C15.3918 18.0735 15.3004 18.0844 14.5119 18.0844C13.7234 18.0844 13.632 18.0735 13.225 17.9312C12.572 17.7027 12.0779 17.3876 11.5822 16.8834C11.0735 16.3659 10.8424 15.9998 10.6039 15.3327C10.4391 14.8718 10.4323 14.8188 10.4341 14.0034C10.4357 13.2292 10.4489 13.1152 10.5833 12.7157C10.8687 11.8666 11.4777 11.0671 12.2101 10.5799C13.0128 10.0459 13.586 9.88687 14.6214 9.91082C15.281 9.92605 15.4125 9.94605 15.8405 10.0962ZM13.8661 11.4037C12.4264 11.7914 11.5495 13.2369 11.9112 14.6263C12.1731 15.6324 12.8854 16.344 13.8933 16.6067C15.7754 17.0973 17.6039 15.2676 17.1137 13.3843C16.7321 11.9185 15.2686 11.026 13.8661 11.4037Z" fill="white"/>
</svg>
