<svg width="160" height="29" viewBox="0 0 160 29" fill="none" xmlns="http://www.w3.org/2000/svg">
<path d="M11.4319 17.5145C11.4319 18.4103 11.1115 19.128 10.4713 19.6851C9.83053 20.2421 8.99338 20.5177 7.96044 20.5177C6.38699 20.5177 5.60086 19.8976 5.60086 18.6572C5.60086 18.0485 5.82514 17.5834 6.27486 17.256C6.724 16.9287 7.49944 16.6473 8.60061 16.4061C9.94919 16.0788 10.8931 15.786 11.4319 15.5275V17.5145ZM16.6897 20.8738V12.461C16.6897 10.3075 15.9594 8.71685 14.4992 7.69468C13.2402 6.78161 11.3761 6.32791 8.9038 6.32791C6.43209 6.32791 4.52699 6.86773 3.19028 7.95881C1.85416 9.04416 1.15168 10.4166 1.08464 12.0647H6.14078C6.31995 10.6291 7.25262 9.917 8.93761 9.917C10.5105 9.917 11.2972 10.5143 11.2972 11.7087C11.2972 12.2543 10.9887 12.6505 10.3704 12.8974C9.75163 13.1501 8.60062 13.374 6.91504 13.5692C4.84738 13.8277 3.23003 14.3445 2.06181 15.1197C0.893001 15.8892 0.308594 17.1239 0.308594 18.818C0.308594 20.4316 0.848502 21.6835 1.92713 22.5736C3.00576 23.4637 4.43146 23.9117 6.20781 23.9117C8.52111 23.9117 10.2292 23.1479 11.331 21.6261H11.3986C11.5547 22.5621 11.7463 23.1824 11.9712 23.4867H17.2967V23.257C16.8926 22.9986 16.6897 22.2004 16.6897 20.8738Z" fill="#FDFCF7"/>
<path d="M21.3068 1.69363C20.3628 2.60669 19.8911 3.89875 19.8911 5.57557V6.78151H17.6663V10.1753H19.8911V23.4866H25.3851V10.1753H28.621V6.78151H25.3851V5.96611C25.3851 5.09899 25.6325 4.54196 26.1268 4.30077C26.6216 4.06532 27.4528 3.96761 28.621 4.00781V0.257988C25.1158 -0.092308 22.6773 0.390066 21.3068 1.69363Z" fill="#FDFCF7"/>
<path d="M37.5433 1.49846H32.184V6.78162H29.8915V10.1123H32.184V19.0821C32.184 20.7762 32.661 21.9707 33.6162 22.6541C34.5715 23.3374 35.9254 23.682 37.678 23.682C39.0485 23.682 40.0482 23.5959 40.6783 23.4236V19.5358C40.6326 19.5358 40.4641 19.5416 40.1728 19.5531C39.8803 19.5646 39.6442 19.5702 39.4644 19.5702C38.8349 19.5702 38.3573 19.4497 38.0322 19.2143C37.7059 18.9731 37.5433 18.5482 37.5433 17.9394V10.1123H40.6783V6.78162H37.5433V1.49846Z" fill="#FDFCF7"/>
<path d="M46.5229 13.3403C46.9275 11.1639 48.1076 10.0786 50.062 10.0786C50.9602 10.0786 51.7078 10.3714 52.3035 10.9571C52.8985 11.5486 53.2409 12.3411 53.3311 13.3403H46.5229ZM55.8591 8.38454C54.2869 6.9891 52.3207 6.29423 49.9611 6.29423C47.3541 6.29423 45.2254 7.1326 43.5736 8.80368C41.9218 10.4805 41.0959 12.5766 41.0959 15.1033C41.0959 17.6932 41.9331 19.818 43.6074 21.4776C45.2805 23.1429 47.5119 23.9756 50.2975 23.9756C52.3877 23.9756 54.1848 23.4644 55.6906 22.4423C57.2184 21.4201 58.1849 20.1051 58.5901 18.4972H53.2302C52.7354 19.6055 51.7808 20.1568 50.3651 20.1568C49.2634 20.1568 48.3876 19.8409 47.7362 19.1977C47.0842 18.5545 46.6689 17.6588 46.4885 16.5045H58.8927C58.9372 12.9154 57.9262 10.2107 55.8591 8.38454Z" fill="#FDFCF7"/>
<path d="M65.7856 9.39437H65.6847V6.78151H60.4263V23.4866H65.9209V15.981C65.9209 14.2008 66.4145 12.8974 67.4035 12.0819C68.392 11.2665 69.74 10.9794 71.4481 11.2206H71.5828V6.65522C71.3804 6.56334 71.0209 6.52309 70.5041 6.52309C68.5272 6.52309 66.9538 7.47636 65.7856 9.39437Z" fill="#FDFCF7"/>
<path d="M84.782 18.6748C84.1858 19.4902 83.3605 19.898 82.3044 19.898C81.1356 19.898 80.2255 19.4788 79.574 18.6403C78.922 17.8077 78.5963 16.6994 78.5963 15.3327C78.5963 13.9142 78.9113 12.7715 79.5402 11.8871C80.1691 11.0085 81.0573 10.5663 82.2024 10.5663C83.3492 10.5663 84.2143 10.9912 84.7987 11.8411C85.3825 12.691 85.675 13.8511 85.675 15.3327C85.675 16.7453 85.3771 17.8593 84.782 18.6748ZM83.8553 6.29385C81.6975 6.29385 79.9561 7.13222 78.6307 8.8033H78.5298V6.78196H73.2714V28.9999H78.7654V21.7586H78.8324C79.9787 23.2574 81.6073 24.0096 83.72 24.0096C85.9894 24.0096 87.8097 23.2057 89.1796 21.592C90.5507 19.9841 91.2366 17.8307 91.2366 15.1317C91.2366 12.5705 90.5674 10.4515 89.2312 8.79186C87.8939 7.12652 86.1016 6.29385 83.8553 6.29385Z" fill="#FDFCF7"/>
<path d="M98.2607 9.39437H98.1598V6.78151H92.902V23.4866H98.396V15.981C98.396 14.2008 98.8896 12.8974 99.8792 12.0819C100.867 11.2665 102.215 10.9794 103.924 11.2206H104.058V6.65522C103.856 6.56334 103.497 6.52309 102.98 6.52309C101.002 6.52309 99.4295 7.47636 98.2607 9.39437Z" fill="#FDFCF7"/>
<path d="M105.612 23.4866H111.106V6.78151H105.612V23.4866Z" fill="#FDFCF7"/>
<path d="M114.409 4.29153e-05H108.072L106.151 4.82379H110.331L114.409 4.29153e-05Z" fill="#FDFCF7"/>
<path d="M134.45 6.29339C132.136 6.29339 130.327 7.26961 129.024 9.22782H128.956C127.99 7.26961 126.373 6.29339 124.103 6.29339C121.811 6.29339 120.069 7.2524 118.879 9.16467H118.778V6.78151H113.52V23.4866H119.014V14.1205C119.014 13.0984 119.255 12.2771 119.738 11.6627C120.221 11.0425 120.889 10.7324 121.744 10.7324C123.362 10.7324 124.17 11.6741 124.17 13.5692V23.4866H129.664V14.1205C129.664 13.0984 129.906 12.2771 130.389 11.6627C130.873 11.0425 131.54 10.7324 132.395 10.7324C134.012 10.7324 134.821 11.6741 134.821 13.5692V23.4866H140.316V12.6216C140.316 10.6864 139.815 9.14749 138.815 8.00472C137.816 6.86195 136.361 6.29339 134.45 6.29339Z" fill="#FDFCF7"/>
<path d="M147.194 13.3403C147.599 11.1639 148.779 10.0786 150.733 10.0786C151.631 10.0786 152.379 10.3714 152.975 10.9571C153.57 11.5486 153.913 12.3411 154.003 13.3403H147.194ZM156.53 8.38454C154.958 6.9891 152.992 6.29423 150.632 6.29423C148.025 6.29423 145.897 7.1326 144.245 8.80368C142.594 10.4805 141.767 12.5766 141.767 15.1033C141.767 17.6932 142.604 19.818 144.279 21.4776C145.952 23.1429 148.183 23.9756 150.969 23.9756C153.059 23.9756 154.857 23.4644 156.362 22.4423C157.89 21.4201 158.857 20.1051 159.261 18.4972H153.902C153.407 19.6055 152.452 20.1568 151.036 20.1568C149.935 20.1568 149.059 19.8409 148.407 19.1977C147.755 18.5545 147.34 17.6588 147.16 16.5045H159.564C159.609 12.9154 158.598 10.2107 156.53 8.38454Z" fill="#FDFCF7"/>
<path d="M81.3757 0.643438H74.5634L73 4.75586H79.8485L81.3757 0.643438Z" fill="#FDFCF7"/>
</svg>
