<svg width="204" height="29" viewBox="0 0 204 29" fill="none" xmlns="http://www.w3.org/2000/svg">
<path d="M23.3436 29V28.9656H23.2V28.9311H23.0563V28.8967H22.9127V28.8622H22.8408V28.8278H22.769V28.7933H22.6613V28.7589H22.5894V28.7245H22.5535V28.69H22.4817V28.6556H22.4099V28.6211H22.374V28.5867H22.3021V28.5523H22.2662V28.5178H22.2303V28.4834H22.1944V28.4489H22.1585V28.4145H22.0867V28.38H22.0507V28.3456H22.0148V28.2767H21.9789V28.2423H21.943V28.2078H21.9071V28.1734H21.8712V28.139H21.8353V28.0701H21.7994V28.0356H21.7634V27.9667H21.7275V27.9323H21.6916V27.8634H21.6557V27.7945H21.6198V27.7257H21.5839V27.6568H21.548V27.5879H21.5121V27.4846H21.4761V27.3812H21.4402V27.2779H21.4043V27.209H21.3684V27.1057H21.3325V27.0024H21.2966V26.899H21.2607V26.7957H21.2247V26.7268H21.1888V26.6235H21.1529V26.5202H21.117V26.4169H21.0811V26.3135H21.0452V26.2447H21.0093V26.1413H20.9734V26.038H20.9374V25.9347H20.9015V25.8313H20.8656V25.728H20.8297V25.6591H20.7938V25.5558H20.7579V25.4525H20.722V25.3492H20.686V25.2458H20.6501V25.177H20.6142V25.0736H20.5783V24.9703H20.5424V24.867H20.5065V24.7637H20.4706V24.6948H20.4347V24.5914H20.3987V24.4881H20.3628V24.3848H20.3269V24.2815H20.291V24.2126H20.2551V24.1093H20.2192V24.0059H20.1833V23.9026H20.1473V23.7993H20.1114V23.696H20.0755V23.6271H20.0396V23.5237H20.0037V23.4204H19.9678V23.3171H19.9319V23.2138H19.896V23.1449H19.86V23.0416H19.8241V22.9382H19.7882V22.8349H19.7523V22.7316H19.7164V22.6627H19.6805V22.5594H19.6446V22.456H19.6086V22.3527H19.5727V22.2494H19.5368V22.1805H19.5009V22.0772H19.465V21.9739H19.4291V21.8705H19.3932V21.7672H19.3573V21.6639H19.3213V21.595H19.2854V21.4917H19.2495V21.3884H19.2136V21.285H19.1777V21.1817H19.1418V21.1128H19.1059V21.0095H19.0699V20.9062H19.034V20.8028H18.9981V20.6995H18.9622V20.6306H18.9263V20.5273H18.8904V20.424H18.8545V20.3207H18.8186V20.2173H18.7826V20.1484H18.7467V20.0451H18.7108V19.9418H18.6749V19.8385H18.639V19.7351H18.6031V19.6318H18.5672V19.5629H18.5312V19.4596H18.4953V19.3563H18.4594V19.253H18.4235V19.1496H18.3876V19.0807H18.3517V18.9774H18.3158V18.8741H18.2799V18.7708H18.2439V18.6674H18.208V18.5986H18.1721V18.4952H18.1362V18.3919H18.1003V18.2886H18.0644V18.1853H18.0285V18.1164H17.9926V18.013H17.9566V17.9097H17.9207V17.8064H17.8848V17.7031H17.8489V17.6342H17.813V17.5309H17.7771V17.4275H17.7412V17.3242H17.7052V17.2209H17.6693V17.1176H17.6334V17.0487H17.5975V16.9454H17.5616V16.842H17.5257V16.7387H17.4898V16.6354H17.4539V16.5665H17.4179V16.4632H17.382V16.3598H17.3461V16.2565H17.3102V16.1532H17.2743V16.0843H17.2384V15.981H17.2025V15.8777H17.1665V15.7743H17.1306V15.671H17.0947V15.6021H17.0588V15.4988H17.0229V15.3955H16.987V15.2921H16.9511V15.1888H16.9152V15.0855H16.8792V15.0166H16.8433V14.9133H16.8074V14.81H16.7715V14.7066H16.7356V14.6033H16.6997V14.5344H16.6638V14.4311H16.6278V14.3278H16.5919V14.2244H16.556V14.1211H16.5201V14.0522H16.4842V13.9489H16.4483V13.8456H16.4124V13.7423H16.3765V13.6389H16.3405V13.5701H16.3046V13.4667H16.2687V13.3634H16.2328V13.2601H16.1969V13.1567H16.161V13.0534H16.1251V12.9845H16.0891V12.8812H16.0532V12.7779H16.0173V12.6746H15.9814V12.5712H15.9455V12.5024H15.9096V12.399H15.8737V12.2957H15.8378V12.1924H15.8018V12.0891H15.7659V12.0202H15.73V11.9168H15.6941V11.8135H15.6582V11.7102H15.6223V11.6069H15.5864V11.538H15.5504V11.4347H15.5145V11.3313H15.4786V11.228H15.4427V11.1247H15.4068V11.0214H15.3709V10.9525H15.335V10.8491H15.2991V10.7458H15.2631V10.6425H15.2272V10.5392H15.1913V10.4703H15.1554V10.367H15.1195V10.2636H15.0836V10.1603H15.0477V10.057H15.0117V9.9881H14.9758V9.88477H14.9399V9.78145H14.904V9.67812H14.8681V9.5748H14.8322V9.50591H14.7963V9.40259H14.7604V9.29926H14.7244V9.19594H14.6885V9.09261H14.6526V8.98928H14.6167V8.9204H14.5808V8.81708H14.5449V8.71375H14.509V8.61042H14.4731V8.5071H14.4371V8.43821H14.4012V8.33489H14.3653V8.23156H14.3294V8.12824H14.2935V8.02491H14.2576V7.95603H14.2217V7.8527H14.1857V7.74938H14.1498V7.64605H14.1139V7.54273H14.078V7.47384H14.0421V7.37052H14.0062V7.26719H13.9703V7.16387H13.9344V7.06054H13.8984V6.95722H13.8625V6.88833H13.8266V6.75056H13.7907V6.6128H13.7548V6.3717H13.7189V5.9584H13.7548V5.71731H13.7907V5.5451H13.8266V5.44177H13.8625V5.33845H13.8984V5.26956H13.9344V5.20068H13.9703V5.1318H14.0062V5.06291H14.0421V4.99403H14.078V4.95959H14.1139V4.8907H14.1498V4.85626H14.1857V4.78738H14.2217V4.75294H14.2576V4.71849H14.2935V4.68405H14.3294V4.64961H14.3653V4.61517H14.4012V4.58073H14.4371V4.54629H14.4731V4.51184H14.509V4.4774H14.5449V4.44296H14.5808V4.40852H14.6167V4.37408H14.6885V4.33963H14.7244V4.30519H14.7604V4.27075H14.8322V4.23631H14.904V4.20187H14.9399V4.16743H15.0477V4.13298H15.1195V4.09854H15.1913V4.0641H15.2991V4.02966H15.4068V3.99522H15.5504V3.96077H15.7659V3.92633H26.899V3.96077H27.1145V3.99522H27.2582V4.02966H27.4018V4.0641H27.4737V4.09854H27.5814V4.13298H27.6532V4.16743H27.725V4.20187H27.7969V4.23631H27.8328V4.27075H27.9046V4.30519H27.9764V4.33963H28.0124V4.37408H28.0483V4.40852H28.1201V4.44296H28.156V4.4774H28.1919V4.51184H28.2278V4.54629H28.2637V4.58073H28.2997V4.61517H28.3356V4.64961H28.3715V4.68405H28.4074V4.71849H28.4433V4.75294H28.4792V4.82182H28.5151V4.85626H28.5511V4.92515H28.587V4.95959H28.6229V5.02847H28.6588V5.06291H28.6947V5.1318H28.7306V5.23512H28.7665V5.30401H28.8024V5.37289H28.8384V5.47622H28.8743V5.57954H28.9102V5.68287H28.9461V5.75175H28.982V5.85508H29.0179V5.9584H29.0538V6.06173H29.0898V6.16505H29.1257V6.23394H29.1616V6.33726H29.1975V6.44059H29.2334V6.54391H29.2693V6.64724H29.3052V6.71612H29.3411V6.81945H29.3771V6.92277H29.413V7.0261H29.4489V7.12942H29.4848V7.19831H29.5207V7.30163H29.5566V7.40496H29.5925V7.50828H29.6284V7.61161H29.6644V7.71494H29.7003V7.78382H29.7362V7.88715H29.7721V7.99047H29.808V8.0938H29.8439V8.19712H29.8798V8.26601H29.9158V8.36933H29.9517V8.47266H29.9876V8.57598H30.0235V8.67931H30.0594V8.74819H30.0953V8.85152H30.1312V8.95484H30.1671V9.05817H30.2031V9.16149H30.239V9.23038H30.2749V9.3337H30.3108V9.43703H30.3467V9.54035H30.3826V9.64368H30.4185V9.74701H30.4545V9.81589H30.4904V9.91921H30.5263V10.0225H30.5622V10.1259H30.5981V10.2292H30.634V10.2981H30.6699V10.4014H30.7058V10.5047H30.7418V10.6081H30.7777V10.7114H30.8136V10.7803H30.8495V10.8836H30.8854V10.9869H30.9213V11.0902H30.9572V11.1936H30.9932V11.2624H31.0291V11.3658H31.065V11.4691H31.1009V11.5724H31.1368V11.6757H31.1727V11.7791H31.2086V11.848H31.2445V11.9513H31.2805V12.0546H31.3164V12.1579H31.3523V12.2613H31.3882V12.3301H31.4241V12.4335H31.46V12.5368H31.4959V12.6401H31.5319V12.7434H31.5678V12.8123H31.6037V12.9157H31.6396V13.019H31.6755V13.1223H31.7114V13.2256H31.7473V13.2945H31.7832V13.3978H31.8192V13.5012H31.8551V13.6045H31.891V13.7078H31.9269V13.8111H31.9628V13.88H31.9987V13.9834H32.0346V14.0867H32.0706V14.19H32.1065V14.2933H32.1424V14.3622H32.1783V14.4655H32.2142V14.5689H32.2501V14.6722H32.286V14.7755H32.3219V14.8444H32.3579V14.9477H32.3938V15.0511H32.4297V15.1544H32.4656V15.2577H32.5015V15.3266H32.5374V15.4299H32.5733V15.5332H32.6093V15.6366H32.6452V15.7399H32.6811V15.8432H32.717V15.9121H32.7529V16.0154H32.7888V16.1187H32.8247V16.2221H32.8606V16.3254H32.8966V16.3943H32.9325V16.4976H32.9684V16.6009H33.0043V16.7043H33.0402V16.8076H33.0761V16.8765H33.112V16.9798H33.1479V17.0831H33.1839V17.1864H33.2198V17.2898H33.2557V17.3587H33.2916V17.462H33.3275V17.5653H33.3634V17.6686H33.3993V17.772H33.4353V17.8753H33.4712V17.9442H33.5071V18.0475H33.543V18.1508H33.5789V18.2541H33.6148V18.3575H33.6507V18.4264H33.6866V18.5297H33.7226V18.633H33.7585V18.7363H33.7944V18.8397H33.8303V18.9085H33.8662V19.0119H33.9021V19.1152H33.938V19.2185H33.974V19.3218H34.0099V19.3907H34.0458V19.494H34.0817V19.5974H34.1176V19.7007H34.1535V19.804H34.1894V19.8729H34.2253V19.9762H34.2613V20.0796H34.2972V20.1829H34.3331V20.2862H34.369V20.3895H34.4049V20.4584H34.4408V20.5617H34.4767V20.6651H34.5127V20.7684H34.5486V20.8717H34.5845V20.9406H34.6204V21.0439H34.6563V21.1473H34.6922V21.2506H34.7281V21.3539H34.764V21.4228H34.8V21.5261H34.8359V21.6294H34.8718V21.7328H34.9077V21.8361H34.9436V21.905H34.9795V22.0083H35.0154V22.1116H35.0514V22.215H35.0873V22.3183H35.1232V22.4216H35.1591V22.4905H35.195V22.5938H35.2309V22.6971H35.2668V22.8005H35.3027V22.9038H35.3387V22.9727H35.3746V23.076H35.4105V23.1793H35.4464V23.2827H35.4823V23.386H35.5182V23.4549H35.5541V23.5582H35.5901V23.6615H35.626V23.7648H35.6619V23.8682H35.6978V23.937H35.7337V24.0404H35.7696V24.1437H35.8055V24.247H35.8414V24.3504H35.8774V24.4537H35.9133V24.5226H35.9492V24.6259H35.9851V24.7292H36.021V24.8325H36.0569V24.9359H36.0928V25.0047H36.1288V25.1081H36.1647V25.2114H36.2006V25.3147H36.2365V25.418H36.2724V25.4869H36.3083V25.5903H36.3442V25.6936H36.3801V25.7969H36.4161V25.9002H36.452V25.9691H36.4879V26.0724H36.5238V26.2102H36.5597V26.3824H36.5956V26.7957H36.6315V26.8646H36.5956V27.1746H36.5597V27.3468H36.5238V27.4501H36.4879V27.5534H36.452V27.6568H36.4161V27.7257H36.3801V27.7945H36.3442V27.8634H36.3083V27.8979H36.2724V27.9667H36.2365V28.0356H36.2006V28.0701H36.1647V28.1045H36.1288V28.1734H36.0928V28.2078H36.0569V28.2423H36.021V28.2767H35.9851V28.3112H35.9492V28.3456H35.9133V28.38H35.8774V28.4145H35.8414V28.4489H35.8055V28.4834H35.7696V28.5178H35.7337V28.5523H35.6619V28.5867H35.626V28.6211H35.5901V28.6556H35.5182V28.69H35.4464V28.7245H35.4105V28.7589H35.3387V28.7933H35.2309V28.8278H35.1591V28.8622H35.0514V28.8967H34.9436V28.9311H34.8359V28.9656H34.6204V29" fill="url(#paint0_linear_4303_1567)"/>
<path d="M5.99769 29V28.9656H5.81812V28.9311H5.67447V28.8967H5.56673V28.8622H5.45899V28.8278H5.38717V28.7933H5.31534V28.7589H5.24351V28.7245H5.17169V28.69H5.13577V28.6556H5.06395V28.6211H5.02803V28.5867H4.95621V28.5523H4.92029V28.5178H4.88438V28.4834H4.84847V28.4489H4.77664V28.4145H4.74073V28.38H4.70481V28.3456H4.6689V28.3112H4.63299V28.2767H4.59707V28.2078H4.56116V28.1734H4.52525V28.139H4.48933V28.1045H4.45342V28.0356H4.41751V28.0012H4.38159V27.9323H4.34568V27.8634H4.30977V27.829H4.27385V27.7257H4.23794V27.6568H4.20203V27.5879H4.16611V27.4846H4.1302V27.3812H4.09429V27.209H4.05837V27.0024H4.02246V26.5202H4.05837V26.3135H4.09429V26.1758H4.1302V26.038H4.16611V25.9691H4.20203V25.8658H4.23794V25.7625H4.27385V25.6936H4.30977V25.5903H4.34568V25.5214H4.38159V25.418H4.41751V25.3147H4.45342V25.2458H4.48933V25.1425H4.52525V25.0392H4.56116V24.9703H4.59707V24.867H4.63299V24.7981H4.6689V24.6948H4.70481V24.5914H4.74073V24.5226H4.77664V24.4192H4.81255V24.3504H4.84847V24.247H4.88438V24.1437H4.92029V24.0748H4.95621V23.9715H4.99212V23.8682H5.02803V23.7993H5.06395V23.696H5.09986V23.6271H5.13577V23.5237H5.17169V23.4204H5.2076V23.3515H5.24351V23.2482H5.27943V23.1449H5.31534V23.076H5.35125V22.9727H5.38717V22.9038H5.42308V22.8005H5.45899V22.6971H5.49491V22.6283H5.53082V22.5249H5.56673V22.456H5.60264V22.3527H5.63856V22.2494H5.67447V22.1805H5.71038V22.0772H5.7463V21.9739H5.78221V21.905H5.81812V21.8017H5.85404V21.7328H5.88995V21.6294H5.92586V21.5261H5.96178V21.4572H5.99769V21.3539H6.0336V21.285H6.06952V21.1817H6.10543V21.0784H6.14134V21.0095H6.17726V20.9062H6.21317V20.8028H6.24908V20.734H6.285V20.6306H6.32091V20.5617H6.35682V20.4584H6.39274V20.3551H6.42865V20.2862H6.46456V20.1829H6.50048V20.114H6.53639V20.0107H6.5723V19.9074H6.60822V19.8385H6.64413V19.7351H6.68004V19.6318H6.71596V19.5629H6.75187V19.4596H6.78778V19.3907H6.8237V19.2874H6.85961V19.1841H6.89552V19.1152H6.93144V19.0119H6.96735V18.9085H7.00326V18.8397H7.03918V18.7363H7.07509V18.6674H7.111V18.5641H7.14692V18.4608H7.18283V18.3919H7.21874V18.2886H7.25466V18.2197H7.29057V18.1164H7.32648V18.013H7.3624V17.9442H7.39831V17.8408H7.43422V17.7375H7.47014V17.6686H7.50605V17.5653H7.54196V17.4964H7.57788V17.3931H7.61379V17.2898H7.6497V17.2209H7.68561V17.1176H7.72153V17.0487H7.75744V16.9454H7.79335V16.842H7.82927V16.7731H7.86518V16.6698H7.90109V16.5665H7.93701V16.4976H7.97292V16.3943H8.00883V16.3254H8.04475V16.2221H8.08066V16.1187H8.11657V16.0499H8.15249V15.9465H8.1884V15.8777H8.22431V15.7743H8.26023V15.671H8.29614V15.6021H8.33205V15.4988H8.36797V15.3955H8.40388V15.3266H8.43979V15.2233H8.47571V15.1544H8.51162V15.0511H8.54753V14.9477H8.58345V14.8788H8.61936V14.7755H8.65527V14.6722H8.69119V14.6033H8.7271V14.5H8.76301V14.4311H8.79893V14.3278H8.83484V14.2244H8.87075V14.1556H8.90667V14.0522H8.94258V13.9834H8.97849V13.88H9.01441V13.7767H9.05032V13.7078H9.08623V13.6045H9.12215V13.5012H9.15806V13.4323H9.19397V13.329H9.22989V13.2601H9.2658V13.1567H9.30171V13.0534H9.33763V12.9845H9.37354V12.8812H9.40945V12.8123H9.44537V12.709H9.48128V12.6057H9.51719V12.5368H9.55311V12.4335H9.58902V12.3301H9.62493V12.2613H9.66084V12.1579H9.69676V12.0891H9.73267V11.9857H9.76858V11.8824H9.8045V11.8135H9.84041V11.7102H9.87632V11.6413H9.91224V11.538H9.94815V11.4347H9.98406V11.3658H10.02V11.2624H10.0559V11.1591H10.0918V11.0902H10.1277V10.9869H10.1636V10.918H10.1995V10.8147H10.2355V10.7114H10.2714V10.6425H10.3073V10.5392H10.3432V10.4358H10.3791V10.367H10.415V10.2636H10.4509V10.1947H10.4869V10.0914H10.5228V9.9881H10.5587V9.91921H10.5946V9.81589H10.6305V9.74701H10.6664V9.64368H10.7023V9.54035H10.7382V9.47147H10.7742V9.36814H10.8101V9.26482H10.846V9.19594H10.8819V9.09261H10.9178V9.02373H10.9537V8.9204H10.9896V8.81708H11.0255V8.74819H11.0615V8.64487H11.0974V8.57598H11.1333V8.47266H11.1692V8.36933H11.2051V8.30045H11.241V8.19712H11.2769V8.0938H11.3129V8.02491H11.3488V7.92159H11.3847V7.8527H11.4206V7.74938H11.4565V7.64605H11.4924V7.57717H11.5283V7.47384H11.5642V7.40496H11.6002V7.30163H11.6361V7.19831H11.672V7.12942H11.7079V7.0261H11.7438V6.92277H11.7797V6.85389H11.8156V6.75056H11.8516V6.68168H11.8875V6.57835H11.9234V6.47503H11.9593V6.40615H11.9952V6.30282H12.0311V6.19949H12.067V6.13061H12.1029V6.02729H12.1389V5.9584H12.1748V5.85508H12.2107V5.75175H12.2466V5.68287H12.2825V5.57954H12.3184V5.51066H12.3543V5.40733H12.3903V5.30401H12.4262V5.23512H12.4621V5.16624H12.498V5.09736H12.5339V5.02847H12.5698V4.99403H12.6057V4.92515H12.6416V4.8907H12.6776V4.82182H12.7135V4.78738H12.7494V4.75294H12.7853V4.71849H12.8212V4.64961H12.8571V4.61517H12.893V4.58073H12.929V4.54629H12.9649V4.51184H13.0008V4.4774H13.0726V4.44296H13.1085V4.40852H13.1444V4.37408H13.1803V4.33963H13.2522V4.30519H13.2881V4.27075H13.3599V4.23631H13.4317V4.20187H13.4677V4.16743H13.5395V4.13298H13.6472V4.09854H13.719V4.0641H13.8268V4.02966H13.9345V3.99522H14.0782V3.96077H14.2937V3.92633H25.4268V3.96077H25.6063V3.99522H25.75V4.02966H25.8577V4.0641H25.9655V4.09854H26.0732V4.13298H26.145V4.16743H26.2169V4.20187H26.2887V4.23631H26.3246V4.27075H26.3964V4.30519H26.4323V4.33963H26.5042V4.37408H26.5401V4.40852H26.576V4.44296H26.6119V4.4774H26.6837V4.51184H26.7196V4.54629H26.7556V4.58073H26.7915V4.61517H26.8274V4.64961H26.8633V4.71849H26.8992V4.75294H26.9351V4.78738H26.971V4.82182H27.007V4.8907H27.0429V4.92515H27.0788V4.99403H27.1147V5.06291H27.1506V5.09736H27.1865V5.16624H27.2224V5.26956H27.2583V5.33845H27.2943V5.44177H27.3302V5.5451H27.3661V5.68287H27.402V5.85508H27.4379V6.44059H27.402V6.64724H27.3661V6.78501H27.3302V6.88833H27.2943V6.99166H27.2583V7.09498H27.2224V7.16387H27.1865V7.26719H27.1506V7.33608H27.1147V7.4394H27.0788V7.54273H27.0429V7.61161H27.007V7.71494H26.971V7.78382H26.9351V7.88715H26.8992V7.99047H26.8633V8.05935H26.8274V8.16268H26.7915V8.26601H26.7556V8.33489H26.7196V8.43821H26.6837V8.5071H26.6478V8.61042H26.6119V8.71375H26.576V8.78263H26.5401V8.88596H26.5042V8.95484H26.4683V9.05817H26.4323V9.16149H26.3964V9.23038H26.3605V9.3337H26.3246V9.43703H26.2887V9.50591H26.2528V9.60924H26.2169V9.67812H26.181V9.78145H26.145V9.88477H26.1091V9.95366H26.0732V10.057H26.0373V10.1603H26.0014V10.2292H25.9655V10.3325H25.9296V10.4014H25.8936V10.5047H25.8577V10.6081H25.8218V10.6769H25.7859V10.7803H25.75V10.8491H25.7141V10.9525H25.6782V11.0558H25.6423V11.1247H25.6063V11.228H25.5704V11.3313H25.5345V11.4002H25.4986V11.5035H25.4627V11.5724H25.4268V11.6757H25.3909V11.7791H25.3549V11.848H25.319V11.9513H25.2831V12.0202H25.2472V12.1235H25.2113V12.2268H25.1754V12.2957H25.1395V12.399H25.1036V12.5024H25.0676V12.5712H25.0317V12.6746H24.9958V12.7434H24.9599V12.8468H24.924V12.9501H24.8881V13.019H24.8522V13.1223H24.8162V13.1912H24.7803V13.2945H24.7444V13.3978H24.7085V13.4667H24.6726V13.5701H24.6367V13.6734H24.6008V13.7423H24.5649V13.8456H24.5289V13.9145H24.493V14.0178H24.4571V14.1211H24.4212V14.19H24.3853V14.2933H24.3494V14.3967H24.3135V14.4655H24.2775V14.5689H24.2416V14.6377H24.2057V14.7411H24.1698V14.8444H24.1339V14.9133H24.098V15.0166H24.0621V15.0855H24.0262V15.1888H23.9902V15.2921H23.9543V15.361H23.9184V15.4644H23.8825V15.5677H23.8466V15.6366H23.8107V15.7399H23.7748V15.8088H23.7388V15.9121H23.7029V16.0154H23.667V16.0843H23.6311V16.1876H23.5952V16.2565H23.5593V16.3598H23.5234V16.4632H23.4875V16.532H23.4515V16.6354H23.4156V16.7387H23.3797V16.8076H23.3438V16.9109H23.3079V16.9798H23.272V17.0831H23.2361V17.1864H23.2001V17.2553H23.1642V17.3587H23.1283V17.4275H23.0924V17.5309H23.0565V17.6342H23.0206V17.7031H22.9847V17.8064H22.9488V17.9097H22.9128V17.9786H22.8769V18.0819H22.841V18.1508H22.8051V18.2541H22.7692V18.3575H22.7333V18.4264H22.6974V18.5297H22.6614V18.633H22.6255V18.7019H22.5896V18.8052H22.5537V18.8741H22.5178V18.9774H22.4819V19.0807H22.446V19.1496H22.4101V19.253H22.3741V19.3218H22.3382V19.4252H22.3023V19.5285H22.2664V19.5974H22.2305V19.7007H22.1946V19.804H22.1587V19.8729H22.1228V19.9762H22.0868V20.0451H22.0509V20.1484H22.015V20.2518H21.9791V20.3207H21.9432V20.424H21.9073V20.4929H21.8714V20.5962H21.8354V20.6995H21.7995V20.7684H21.7636V20.8717H21.7277V20.975H21.6918V21.0439H21.6559V21.1473H21.62V21.2161H21.5841V21.3195H21.5481V21.4228H21.5122V21.4917H21.4763V21.595H21.4404V21.6983H21.4045V21.7672H21.3686V21.8705H21.3327V21.9394H21.2967V22.0427H21.2608V22.1461H21.2249V22.215H21.189V22.3183H21.1531V22.3872H21.1172V22.4905H21.0813V22.5938H21.0454V22.6627H21.0094V22.766H20.9735V22.8694H20.9376V22.9382H20.9017V23.0416H20.8658V23.1104H20.8299V23.2138H20.794V23.3171H20.758V23.386H20.7221V23.4893H20.6862V23.5582H20.6503V23.6615H20.6144V23.7648H20.5785V23.8337H20.5426V23.937H20.5067V24.0404H20.4707V24.1093H20.4348V24.2126H20.3989V24.2815H20.363V24.3848H20.3271V24.4881H20.2912V24.557H20.2553V24.6603H20.2193V24.7292H20.1834V24.8325H20.1475V24.9359H20.1116V25.0047H20.0757V25.1081H20.0398V25.2114H20.0039V25.2803H19.968V25.3836H19.932V25.4525H19.8961V25.5558H19.8602V25.6591H19.8243V25.728H19.7884V25.8313H19.7525V25.9002H19.7166V26.0036H19.6806V26.1069H19.6447V26.1758H19.6088V26.2791H19.5729V26.3824H19.537V26.4513H19.5011V26.5546H19.4652V26.6235H19.4293V26.7268H19.3933V26.8302H19.3574V26.899H19.3215V27.0024H19.2856V27.0713H19.2497V27.1746H19.2138V27.2779H19.1779V27.3468H19.1419V27.4501H19.106V27.5534H19.0701V27.6223H19.0342V27.6912H18.9983V27.7601H18.9624V27.829H18.9265V27.8979H18.8906V27.9667H18.8546V28.0012H18.8187V28.0701H18.7828V28.1045H18.7469V28.1734H18.711V28.2078H18.6751V28.2423H18.6392V28.2767H18.6033V28.3112H18.5673V28.3456H18.5314V28.38H18.4955V28.4145H18.4596V28.4489H18.4237V28.4834H18.3878V28.5178H18.3159V28.5523H18.28V28.5867H18.2082V28.6211H18.1723V28.6556H18.1005V28.69H18.0646V28.7245H17.9927V28.7589H17.9209V28.7933H17.8491V28.8278H17.7413V28.8622H17.6336V28.8967H17.5259V28.9311H17.4181V28.9656H17.2026V29" fill="url(#paint1_linear_4303_1567)"/>
<path d="M1.97523 29V28.9656H1.79566V28.9311H1.65201V28.8967H1.54427V28.8622H1.43653V28.8278H1.3647V28.7933H1.29288V28.7589H1.22105V28.7245H1.14922V28.69H1.0774V28.6556H1.04148V28.6211H0.969658V28.5867H0.933745V28.5523H0.897832V28.5178H0.826005V28.4834H0.790092V28.4489H0.754179V28.4145H0.718265V28.38H0.682352V28.3456H0.646439V28.3112H0.610525V28.2767H0.574612V28.2423H0.538699V28.2078H0.502786V28.139H0.466872V28.1045H0.430959V28.0701H0.395046V28.0012H0.359133V27.9667H0.323219V27.8979H0.287306V27.829H0.251393V27.7945H0.21548V27.6912H0.179566V27.6223H0.143653V27.5534H0.10774V27.4157H0.0718265V27.3123H0.0359133V27.1401H0V26.4169H0.0359133V26.2447H0.0718265V26.1069H0.10774V26.0036H0.143653V25.9002H0.179566V25.8314H0.21548V25.7625H0.251393V25.6591H0.287306V25.5903H0.323219V25.4869H0.359133V25.418H0.395046V25.3147H0.430959V25.2458H0.466872V25.1425H0.502786V25.0736H0.538699V24.9703H0.574612V24.9014H0.610525V24.8325H0.646439V24.7292H0.682352V24.6603H0.718265V24.557H0.754179V24.4881H0.790092V24.3848H0.826005V24.3159H0.861918V24.2126H0.897832V24.1437H0.933745V24.0404H0.969658V23.9715H1.00557V23.9026H1.04148V23.7993H1.0774V23.7304H1.11331V23.6271H1.14922V23.5582H1.18514V23.4549H1.22105V23.386H1.25696V23.2827H1.29288V23.2138H1.32879V23.1104H1.3647V23.0416H1.40062V22.9727H1.43653V22.8694H1.47244V22.8005H1.50836V22.6971H1.54427V22.6283H1.58018V22.5249H1.6161V22.456H1.65201V22.3527H1.68792V22.2838H1.72384V22.1805H1.75975V22.1116H1.79566V22.0427H1.83158V21.9394H1.86749V21.8705H1.9034V21.7672H1.93932V21.6983H1.97523V21.595H2.01114V21.5261H2.04706V21.4228H2.08297V21.3539H2.11888V21.2506H2.1548V21.1817H2.19071V21.1128H2.22662V21.0095H2.26254V20.9406H2.29845V20.8373H2.33436V20.7684H2.37028V20.6651H2.40619V20.5962H2.4421V20.4929H2.47802V20.424H2.51393V20.3207H2.54984V20.2518H2.58575V20.1829H2.62167V20.0796H2.65758V20.0107H2.69349V19.9074H2.72941V19.8385H2.76532V19.7351H2.80123V19.6663H2.83715V19.5629H2.87306V19.4941H2.90897V19.3907H2.94489V19.3218H2.9808V19.253H3.01671V19.1496H3.05263V19.0807H3.08854V18.9774H3.12445V18.9085H3.16037V18.8052H3.19628V18.7363H3.23219V18.633H3.26811V18.5641H3.30402V18.4608H3.33993V18.3919H3.37585V18.323H3.41176V18.2197H3.44767V18.1508H3.48359V18.0475H3.5195V17.9786H3.55541V17.8753H3.59133V17.8064H3.62724V17.7031H3.66315V17.6342H3.69907V17.5309H3.73498V17.462H3.77089V17.3931H3.80681V17.2898H3.84272V17.2209H3.87863V17.1176H3.91455V17.0487H3.95046V16.9454H3.98637V16.8765H4.02229V16.7731H4.0582V16.7043H4.09411V16.6009H4.13003V16.5321H4.16594V16.4632H4.20185V16.3598H4.23776V16.291H4.27368V16.1876H4.30959V16.1187H4.3455V16.0154H4.38142V15.9465H4.41733V15.8432H4.45324V15.7743H4.48916V15.671H4.52507V15.6021H4.56098V15.5332H4.5969V15.4299H4.63281V15.361H4.66872V15.2577H4.70464V15.1888H4.74055V15.0855H4.77646V15.0166H4.81238V14.9133H4.84829V14.8444H4.8842V14.7411H4.92012V14.6722H4.95603V14.6033H4.99194V14.5H5.02786V14.4311H5.06377V14.3278H5.09968V14.2589H5.1356V14.1556H5.17151V14.0867H5.20742V13.9834H5.24334V13.9145H5.27925V13.8111H5.31516V13.7423H5.35108V13.6734H5.38699V13.5701H5.4229V13.5012H5.45882V13.3978H5.49473V13.329H5.53064V13.2256H5.56656V13.1568H5.60247V13.0534H5.63838V12.9845H5.6743V12.8812H5.71021V12.8123H5.74612V12.7434H5.78204V12.6401H5.81795V12.5712H5.85386V12.4679H5.88978V12.399H5.92569V12.2957H5.9616V12.2268H5.99751V12.1235H6.03343V12.0546H6.06934V11.9513H6.10525V11.8824H6.14117V11.8135H6.17708V11.7102H6.21299V11.6413H6.24891V11.538H6.28482V11.4691H6.32073V11.3658H6.35665V11.2969H6.39256V11.1936H6.42847V11.1247H6.46439V11.0214H6.5003V10.9525H6.53621V10.8836H6.57213V10.7803H6.60804V10.7114H6.64395V10.6081H6.67987V10.5392H6.71578V10.4358H6.75169V10.367H6.78761V10.2636H6.82352V10.1948H6.85943V10.0914H6.89535V10.0225H6.93126V9.95366H6.96717V9.85033H7.00309V9.78145H7.039V9.67812H7.07491V9.60924H7.11083V9.50591H7.14674V9.43703H7.18265V9.33371H7.21857V9.26482H7.25448V9.1615H7.29039V9.09261H7.32631V9.02373H7.36222V8.9204H7.39813V8.85152H7.43405V8.74819H7.46996V8.67931H7.50587V8.57598H7.54179V8.5071H7.5777V8.40378H7.61361V8.33489H7.64952V8.23157H7.68544V8.16268H7.72135V8.0938H7.75726V7.99047H7.79318V7.92159H7.82909V7.81826H7.865V7.74938H7.90092V7.64605H7.93683V7.57717H7.97274V7.47385H8.00866V7.40496H8.04457V7.30164H8.08048V7.23275H8.1164V7.16387H8.15231V7.06054H8.18822V6.99166H8.22414V6.88833H8.26005V6.81945H8.29596V6.71612H8.33188V6.64724H8.36779V6.54392H8.4037V6.47503H8.43962V6.37171H8.47553V6.30282H8.51144V6.23394H8.54736V6.13061H8.58327V6.06173H8.61918V5.9584H8.6551V5.88952H8.69101V5.78619H8.72692V5.71731H8.76284V5.61399H8.79875V5.5451H8.83466V5.44178H8.87058V5.37289H8.90649V5.30401H8.9424V5.20068H8.97832V5.1318H9.01423V5.02847H9.05014V4.95959H9.08606V4.85627H9.12197V4.78738H9.15788V4.68406H9.1938V4.61517H9.22971V4.54629H9.26562V4.44296H9.30153V4.37408H9.33745V4.27075H9.37336V4.20187H9.40927V4.09854H9.44519V4.02966H9.4811V3.92634H9.51701V3.85745H9.55293V3.75413H9.58884V3.68524H9.62475V3.61636H9.66067V3.51303H9.69658V3.44415H9.73249V3.34082H9.76841V3.27194H9.80432V3.16861H9.84023V3.09973H9.87615V2.99641H9.91206V2.92752H9.94797V2.8242H9.98389V2.75531H10.0198V2.68643H10.0557V2.5831H10.0916V2.51422H10.1275V2.41089H10.1635V2.34201H10.1994V2.23868H10.2353V2.1698H10.2712V2.06648H10.3071V1.99759H10.343V1.89427H10.3789V1.82538H10.4148V1.7565H10.4508V1.65317H10.4867V1.58429H10.5226V1.48096H10.5585V1.41208H10.5944V1.30875H10.6303V1.23987H10.6662V1.17099H10.7022V1.1021H10.7381V1.06766H10.774V0.998778H10.8099V0.964336H10.8458V0.895453H10.8817V0.861011H10.9176V0.826569H10.9535V0.757685H10.9895V0.723243H11.0254V0.688801H11.0613V0.65436H11.0972V0.619918H11.1331V0.585476H11.169V0.551034H11.2049V0.516592H11.2768V0.48215H11.3127V0.447709H11.3486V0.413267H11.3845V0.378825H11.4563V0.344383H11.5282V0.309941H11.5641V0.275499H11.6359V0.241057H11.7077V0.206616H11.7796V0.172174H11.8873V0.137732H11.9591V0.10329H12.0669V0.0688482H12.2105V0.0344064H12.3901V-3.54722e-05H23.595V0.0344064H23.8105V0.0688482H23.9182V0.10329H24.026V0.137732H24.1337V0.172174H24.2055V0.206616H24.2774V0.241057H24.3492V0.275499H24.421V0.309941H24.4928V0.344383H24.5288V0.378825H24.6006V0.413267H24.6365V0.447709H24.6724V0.48215H24.7442V0.516592H24.7802V0.551034H24.8161V0.585476H24.852V0.619918H24.8879V0.65436H24.9238V0.688801H24.9597V0.723243H24.9956V0.757685H25.0315V0.826569H25.0675V0.861011H25.1034V0.895453H25.1393V0.929894H25.1752V0.998778H25.2111V1.06766H25.247V1.1021H25.2829V1.17099H25.3189V1.23987H25.3548V1.30875H25.3907V1.41208H25.4266V1.48096H25.4625V1.61873H25.4984V1.7565H25.5343V1.92871H25.5702V2.51422H25.5343V2.68643H25.4984V2.85864H25.4625V2.96196H25.4266V3.06529H25.3907V3.13417H25.3548V3.2375H25.3189V3.30638H25.2829V3.40971H25.247V3.47859H25.2111V3.54747H25.1752V3.6508H25.1393V3.71968H25.1034V3.82301H25.0675V3.89189H25.0315V3.99522H24.9956V4.0641H24.9597V4.16743H24.9238V4.23631H24.8879V4.33964H24.852V4.40852H24.8161V4.4774H24.7802V4.58073H24.7442V4.64961H24.7083V4.75294H24.6724V4.82182H24.6365V4.92515H24.6006V4.99403H24.5647V5.09736H24.5288V5.16624H24.4928V5.26957H24.4569V5.33845H24.421V5.40733H24.3851V5.51066H24.3492V5.57954H24.3133V5.68287H24.2774V5.75175H24.2415V5.85508H24.2055V5.92396H24.1696V6.02729H24.1337V6.09617H24.0978V6.1995H24.0619V6.26838H24.026V6.33726H23.9901V6.44059H23.9541V6.50947H23.9182V6.6128H23.8823V6.68168H23.8464V6.78501H23.8105V6.85389H23.7746V6.95722H23.7387V7.0261H23.7028V7.12943H23.6668V7.19831H23.6309V7.26719H23.595V7.37052H23.5591V7.4394H23.5232V7.54273H23.4873V7.61161H23.4514V7.71494H23.4154V7.78382H23.3795V7.88715H23.3436V7.95603H23.3077V8.05936H23.2718V8.12824H23.2359V8.19712H23.2V8.30045H23.1641V8.36933H23.1281V8.47266H23.0922V8.54154H23.0563V8.64487H23.0204V8.71375H22.9845V8.81708H22.9486V8.88596H22.9127V8.98929H22.8767V9.05817H22.8408V9.12705H22.8049V9.23038H22.769V9.29926H22.7331V9.40259H22.6972V9.47147H22.6613V9.5748H22.6254V9.64368H22.5894V9.74701H22.5535V9.81589H22.5176V9.91922H22.4817V9.9881H22.4458V10.057H22.4099V10.1603H22.374V10.2292H22.338V10.3325H22.3021V10.4014H22.2662V10.5047H22.2303V10.5736H22.1944V10.6769H22.1585V10.7458H22.1226V10.8491H22.0867V10.918H22.0507V10.9869H22.0148V11.0902H21.9789V11.1591H21.943V11.2624H21.9071V11.3313H21.8712V11.4347H21.8353V11.5035H21.7994V11.6069H21.7634V11.6758H21.7275V11.7791H21.6916V11.848H21.6557V11.9168H21.6198V12.0202H21.5839V12.0891H21.548V12.1924H21.512V12.2613H21.4761V12.3646H21.4402V12.4335H21.4043V12.5368H21.3684V12.6057H21.3325V12.709H21.2966V12.7779H21.2607V12.8468H21.2247V12.9501H21.1888V13.019H21.1529V13.1223H21.117V13.1912H21.0811V13.2945H21.0452V13.3634H21.0093V13.4667H20.9733V13.5356H20.9374V13.6389H20.9015V13.7078H20.8656V13.7767H20.8297V13.88H20.7938V13.9489H20.7579V14.0522H20.722V14.1211H20.686V14.2244H20.6501V14.2933H20.6142V14.3967H20.5783V14.4655H20.5424V14.5689H20.5065V14.6377H20.4706V14.7066H20.4346V14.81H20.3987V14.8788H20.3628V14.9822H20.3269V15.0511H20.291V15.1544H20.2551V15.2233H20.2192V15.3266H20.1833V15.3955H20.1473V15.4988H20.1114V15.5677H20.0755V15.6366H20.0396V15.7399H20.0037V15.8088H19.9678V15.9121H19.9319V15.981H19.8959V16.0843H19.86V16.1532H19.8241V16.2565H19.7882V16.3254H19.7523V16.4287H19.7164V16.4976H19.6805V16.5665H19.6446V16.6698H19.6086V16.7387H19.5727V16.842H19.5368V16.9109H19.5009V17.0142H19.465V17.0831H19.4291V17.1864H19.3932V17.2553H19.3572V17.3587H19.3213V17.4275H19.2854V17.4964H19.2495V17.5997H19.2136V17.6686H19.1777V17.772H19.1418V17.8408H19.1059V17.9442H19.0699V18.0131H19.034V18.1164H18.9981V18.1853H18.9622V18.2886H18.9263V18.3575H18.8904V18.4264H18.8545V18.5297H18.8185V18.5986H18.7826V18.7019H18.7467V18.7708H18.7108V18.8741H18.6749V18.943H18.639V19.0463H18.6031V19.1152H18.5672V19.2185H18.5312V19.2874H18.4953V19.3563H18.4594V19.4596H18.4235V19.5285H18.3876V19.6318H18.3517V19.7007H18.3158V19.804H18.2799V19.8729H18.2439V19.9762H18.208V20.0451H18.1721V20.1484H18.1362V20.2173H18.1003V20.2862H18.0644V20.3895H18.0285V20.4584H17.9925V20.5617H17.9566V20.6306H17.9207V20.734H17.8848V20.8028H17.8489V20.9062H17.813V20.975H17.7771V21.0784H17.7412V21.1473H17.7052V21.2161H17.6693V21.3195H17.6334V21.3884H17.5975V21.4917H17.5616V21.5606H17.5257V21.6639H17.4898V21.7328H17.4538V21.8361H17.4179V21.905H17.382V22.0083H17.3461V22.0772H17.3102V22.1461H17.2743V22.2494H17.2384V22.3183H17.2025V22.4216H17.1665V22.4905H17.1306V22.5938H17.0947V22.6627H17.0588V22.766H17.0229V22.8349H16.987V22.9382H16.9511V23.0071H16.9151V23.076H16.8792V23.1793H16.8433V23.2482H16.8074V23.3515H16.7715V23.4204H16.7356V23.5237H16.6997V23.5926H16.6638V23.696H16.6278V23.7648H16.5919V23.8682H16.556V23.937H16.5201V24.0059H16.4842V24.1093H16.4483V24.1781H16.4124V24.2815H16.3764V24.3504H16.3405V24.4537H16.3046V24.5226H16.2687V24.6259H16.2328V24.6948H16.1969V24.7981H16.161V24.867H16.1251V24.9359H16.0891V25.0392H16.0532V25.1081H16.0173V25.2114H15.9814V25.2803H15.9455V25.3836H15.9096V25.4525H15.8737V25.5558H15.8377V25.6247H15.8018V25.728H15.7659V25.7969H15.73V25.8658H15.6941V25.9691H15.6582V26.038H15.6223V26.1413H15.5864V26.2102H15.5504V26.3135H15.5145V26.3824H15.4786V26.4857H15.4427V26.5546H15.4068V26.658H15.3709V26.7268H15.335V26.7957H15.299V26.899H15.2631V26.9679H15.2272V27.0713H15.1913V27.1401H15.1554V27.2435H15.1195V27.3123H15.0836V27.4157H15.0477V27.4846H15.0117V27.5879H14.9758V27.6568H14.9399V27.7257H14.904V27.829H14.8681V27.8979H14.8322V28.0012H14.7963V28.0701H14.7604V28.1734H14.7244V28.2423H14.6885V28.3456H14.6526V28.4145H14.6167V28.5178H14.5808V28.5867H14.5449V28.6556H14.509V28.7589H14.473V28.8278H14.4371V28.9311H14.4012V29" fill="url(#paint2_linear_4303_1567)"/>
<path d="M1.97523 29V28.9656H1.79566V28.9311H1.65201V28.8967H1.54427V28.8622H1.43653V28.8278H1.3647V28.7933H1.29288V28.7589H1.22105V28.7245H1.14922V28.69H1.0774V28.6556H1.04148V28.6211H0.969658V28.5867H0.933745V28.5523H0.897832V28.5178H0.826005V28.4834H0.790092V28.4489H0.754179V28.4145H0.718265V28.38H0.682352V28.3456H0.646439V28.3112H0.610525V28.2767H0.574612V28.2423H0.538699V28.2078H0.502786V28.139H0.466872V28.1045H0.430959V28.0701H0.395046V28.0012H0.359133V27.9667H0.323219V27.8979H0.287306V27.829H0.251393V27.7945H0.21548V27.6912H0.179566V27.6223H0.143653V27.5534H0.10774V27.4157H0.0718265V27.3123H0.0359133V27.1401H0V26.4169H0.0359133V26.2447H0.0718265V26.1069H0.10774V26.0036H0.143653V25.9002H0.179566V25.8314H0.21548V25.7625H0.251393V25.6591H0.287306V25.5903H0.323219V25.4869H0.359133V25.418H0.395046V25.3147H0.430959V25.2458H0.466872V25.1425H0.502786V25.0736H0.538699V24.9703H0.574612V24.9014H0.610525V24.8325H0.646439V24.7292H0.682352V24.6603H0.718265V24.557H0.754179V24.4881H0.790092V24.3848H0.826005V24.3159H0.861918V24.2126H0.897832V24.1437H0.933745V24.0404H0.969658V23.9715H1.00557V23.9026H1.04148V23.7993H1.0774V23.7304H1.11331V23.6271H1.14922V23.5582H1.18514V23.4549H1.22105V23.386H1.25696V23.2827H1.29288V23.2138H1.32879V23.1104H1.3647V23.0416H1.40062V22.9727H1.43653V22.8694H1.47244V22.8005H1.50836V22.6971H1.54427V22.6283H1.58018V22.5249H1.6161V22.456H1.65201V22.3527H1.68792V22.2838H1.72384V22.1805H1.75975V22.1116H1.79566V22.0427H1.83158V21.9394H1.86749V21.8705H1.9034V21.7672H1.93932V21.6983H1.97523V21.595H2.01114V21.5261H2.04706V21.4228H2.08297V21.3539H2.11888V21.2506H2.1548V21.1817H2.19071V21.1128H2.22662V21.0095H2.26254V20.9406H2.29845V20.8373H2.33436V20.7684H2.37028V20.6651H2.40619V20.5962H2.4421V20.4929H2.47802V20.424H2.51393V20.3207H2.54984V20.2518H2.58575V20.1829H2.62167V20.0796H2.65758V20.0107H2.69349V19.9074H2.72941V19.8385H2.76532V19.7351H2.80123V19.6663H2.83715V19.5629H2.87306V19.4941H2.90897V19.3907H2.94489V19.3218H2.9808V19.253H3.01671V19.1496H3.05263V19.0807H3.08854V18.9774H3.12445V18.9085H3.16037V18.8052H3.19628V18.7363H3.23219V18.633H3.26811V18.5641H3.30402V18.4608H3.33993V18.3919H3.37585V18.323H3.41176V18.2197H3.44767V18.1508H3.48359V18.0475H3.5195V17.9786H3.55541V17.8753H3.59133V17.8064H3.62724V17.7031H3.66315V17.6342H3.69907V17.5309H3.73498V17.462H3.77089V17.3931H3.80681V17.2898H3.84272V17.2209H3.87863V17.1176H3.91455V17.0487H3.95046V16.9454H3.98637V16.8765H4.02229V16.7731H4.0582V16.7043H4.09411V16.6009H4.13003V16.5321H4.16594V16.4632H4.20185V16.3598H4.23776V16.291H4.27368V16.1876H4.30959V16.1187H4.3455V16.0154H4.38142V15.9465H4.41733V15.8432H4.45324V15.7743H4.48916V15.671H4.52507V15.6021H4.56098V15.5332H4.5969V15.4299H4.63281V15.361H4.66872V15.2577H4.70464V15.1888H4.74055V15.0855H4.77646V15.0166H4.81238V14.9133H4.84829V14.8444H4.8842V14.7411H4.92012V14.6722H4.95603V14.6033H4.99194V14.5H5.02786V14.4311H5.06377V14.3278H5.09968V14.2589H5.1356V14.1556H5.17151V14.0867H5.20742V13.9834H5.24334V13.9145H5.27925V13.8111H5.31516V13.7423H5.35108V13.6734H5.38699V13.5701H5.4229V13.5012H5.45882V13.3978H5.49473V13.329H5.53064V13.2256H5.56656V13.1568H5.60247V13.0534H5.63838V12.9845H5.6743V12.8812H5.71021V12.8123H5.74612V12.7434H5.78204V12.6401H5.81795V12.5712H5.85386V12.4679H5.88978V12.399H5.92569V12.2957H5.9616V12.2268H5.99751V12.1235H6.03343V12.0546H6.06934V11.9513H6.10525V11.8824H6.14117V11.8135H6.17708V11.7102H6.21299V11.6413H6.24891V11.538H6.28482V11.4691H6.32073V11.3658H6.35665V11.2969H6.39256V11.1936H6.42847V11.1247H6.46439V11.0214H6.5003V10.9525H6.53621V10.8836H6.57213V10.7803H6.60804V10.7114H6.64395V10.6081H6.67987V10.5392H6.71578V10.4358H6.75169V10.367H6.78761V10.2636H6.82352V10.1948H6.85943V10.0914H6.89535V10.0225H6.93126V9.95366H6.96717V9.85033H7.00309V9.78145H7.039V9.67812H7.07491V9.60924H7.11083V9.50591H7.14674V9.43703H7.18265V9.33371H7.21857V9.26482H7.25448V9.1615H7.29039V9.09261H7.32631V9.02373H7.36222V8.9204H7.39813V8.85152H7.43405V8.74819H7.46996V8.67931H7.50587V8.57598H7.54179V8.5071H7.5777V8.40378H7.61361V8.33489H7.64952V8.23157H7.68544V8.16268H7.72135V8.0938H7.75726V7.99047H7.79318V7.92159H7.82909V7.81826H7.865V7.74938H7.90092V7.64605H7.93683V7.57717H7.97274V7.47385H8.00866V7.40496H8.04457V7.30164H8.08048V7.23275H8.1164V7.16387H8.15231V7.06054H8.18822V6.99166H8.22414V6.88833H8.26005V6.81945H8.29596V6.71612H8.33188V6.64724H8.36779V6.54392H8.4037V6.47503H8.43962V6.37171H8.47553V6.30282H8.51144V6.23394H8.54736V6.13061H8.58327V6.06173H8.61918V5.9584H8.6551V5.88952H8.69101V5.78619H8.72692V5.71731H8.76284V5.61399H8.79875V5.5451H8.83466V5.44178H8.87058V5.37289H8.90649V5.30401H8.9424V5.20068H8.97832V5.1318H9.01423V5.02847H9.05014V4.95959H9.08606V4.85627H9.12197V4.78738H9.15788V4.68406H9.1938V4.61517H9.22971V4.54629H9.26562V4.44296H9.30153V4.37408H9.33745V4.27075H9.37336V4.20187H9.40927V4.09854H9.44519V4.02966H9.4811V3.92634H9.51701V3.85745H9.55293V3.75413H9.58884V3.68524H9.62475V3.61636H9.66067V3.51303H9.69658V3.44415H9.73249V3.34082H9.76841V3.27194H9.80432V3.16861H9.84023V3.09973H9.87615V2.99641H9.91206V2.92752H9.94797V2.8242H9.98389V2.75531H10.0198V2.68643H10.0557V2.5831H10.0916V2.51422H10.1275V2.41089H10.1635V2.34201H10.1994V2.23868H10.2353V2.1698H10.2712V2.06648H10.3071V1.99759H10.343V1.89427H10.3789V1.82538H10.4148V1.7565H10.4508V1.65317H10.4867V1.58429H10.5226V1.48096H10.5585V1.41208H10.5944V1.30875H10.6303V1.23987H10.6662V1.17099H10.7022V1.1021H10.7381V1.06766H10.774V0.998778H10.8099V0.964336H10.8458V0.895453H10.8817V0.861011H10.9176V0.826569H10.9535V0.757685H10.9895V0.723243H11.0254V0.688801H11.0613V0.65436H11.0972V0.619918H11.1331V0.585476H11.169V0.551034H11.2049V0.516592H11.2768V0.48215H11.3127V0.447709H11.3486V0.413267H11.3845V0.378825H11.4563V0.344383H11.5282V0.309941H11.5641V0.275499H11.6359V0.241057H11.7077V0.206616H11.7796V0.172174H11.8873V0.137732H11.9591V0.10329H12.0669V0.0688482H12.2105V0.0344064H12.3901V-3.54722e-05H23.595V0.0344064H23.8105V0.0688482H23.9182V0.10329H24.026V0.137732H24.1337V0.172174H24.2055V0.206616H24.2774V0.241057H24.3492V0.275499H24.421V0.309941H24.4928V0.344383H24.5288V0.378825H24.6006V0.413267H24.6365V0.447709H24.6724V0.48215H24.7442V0.516592H24.7802V0.551034H24.8161V0.585476H24.852V0.619918H24.8879V0.65436H24.9238V0.688801H24.9597V0.723243H24.9956V0.757685H25.0315V0.826569H25.0675V0.861011H25.1034V0.895453H25.1393V0.929894H25.1752V0.998778H25.2111V1.06766H25.247V1.1021H25.2829V1.17099H25.3189V1.23987H25.3548V1.30875H25.3907V1.41208H25.4266V1.48096H25.4625V1.61873H25.4984V1.7565H25.5343V1.92871H25.5702V2.51422H25.5343V2.68643H25.4984V2.85864H25.4625V2.96196H25.4266V3.06529H25.3907V3.13417H25.3548V3.2375H25.3189V3.30638H25.2829V3.40971H25.247V3.47859H25.2111V3.54747H25.1752V3.6508H25.1393V3.71968H25.1034V3.82301H25.0675V3.89189H25.0315V3.99522H24.9956V4.0641H24.9597V4.16743H24.9238V4.23631H24.8879V4.33964H24.852V4.40852H24.8161V4.4774H24.7802V4.58073H24.7442V4.64961H24.7083V4.75294H24.6724V4.82182H24.6365V4.92515H24.6006V4.99403H24.5647V5.09736H24.5288V5.16624H24.4928V5.26957H24.4569V5.33845H24.421V5.40733H24.3851V5.51066H24.3492V5.57954H24.3133V5.68287H24.2774V5.75175H24.2415V5.85508H24.2055V5.92396H24.1696V6.02729H24.1337V6.09617H24.0978V6.1995H24.0619V6.26838H24.026V6.33726H23.9901V6.44059H23.9541V6.50947H23.9182V6.6128H23.8823V6.68168H23.8464V6.78501H23.8105V6.85389H23.7746V6.95722H23.7387V7.0261H23.7028V7.12943H23.6668V7.19831H23.6309V7.26719H23.595V7.37052H23.5591V7.4394H23.5232V7.54273H23.4873V7.61161H23.4514V7.71494H23.4154V7.78382H23.3795V7.88715H23.3436V7.95603H23.3077V8.05936H23.2718V8.12824H23.2359V8.19712H23.2V8.30045H23.1641V8.36933H23.1281V8.47266H23.0922V8.54154H23.0563V8.64487H23.0204V8.71375H22.9845V8.81708H22.9486V8.88596H22.9127V8.98929H22.8767V9.05817H22.8408V9.12705H22.8049V9.23038H22.769V9.29926H22.7331V9.40259H22.6972V9.47147H22.6613V9.5748H22.6254V9.64368H22.5894V9.74701H22.5535V9.81589H22.5176V9.91922H22.4817V9.9881H22.4458V10.057H22.4099V10.1603H22.374V10.2292H22.338V10.3325H22.3021V10.4014H22.2662V10.5047H22.2303V10.5736H22.1944V10.6769H22.1585V10.7458H22.1226V10.8491H22.0867V10.918H22.0507V10.9869H22.0148V11.0902H21.9789V11.1591H21.943V11.2624H21.9071V11.3313H21.8712V11.4347H21.8353V11.5035H21.7994V11.6069H21.7634V11.6758H21.7275V11.7791H21.6916V11.848H21.6557V11.9168H21.6198V12.0202H21.5839V12.0891H21.548V12.1924H21.512V12.2613H21.4761V12.3646H21.4402V12.4335H21.4043V12.5368H21.3684V12.6057H21.3325V12.709H21.2966V12.7779H21.2607V12.8468H21.2247V12.9501H21.1888V13.019H21.1529V13.1223H21.117V13.1912H21.0811V13.2945H21.0452V13.3634H21.0093V13.4667H20.9733V13.5356H20.9374V13.6389H20.9015V13.7078H20.8656V13.7767H20.8297V13.88H20.7938V13.9489H20.7579V14.0522H20.722V14.1211H20.686V14.2244H20.6501V14.2933H20.6142V14.3967H20.5783V14.4655H20.5424V14.5689H20.5065V14.6377H20.4706V14.7066H20.4346V14.81H20.3987V14.8788H20.3628V14.9822H20.3269V15.0511H20.291V15.1544H20.2551V15.2233H20.2192V15.3266H20.1833V15.3955H20.1473V15.4988H20.1114V15.5677H20.0755V15.6366H20.0396V15.7399H20.0037V15.8088H19.9678V15.9121H19.9319V15.981H19.8959V16.0843H19.86V16.1532H19.8241V16.2565H19.7882V16.3254H19.7523V16.4287H19.7164V16.4976H19.6805V16.5665H19.6446V16.6698H19.6086V16.7387H19.5727V16.842H19.5368V16.9109H19.5009V17.0142H19.465V17.0831H19.4291V17.1864H19.3932V17.2553H19.3572V17.3587H19.3213V17.4275H19.2854V17.4964H19.2495V17.5997H19.2136V17.6686H19.1777V17.772H19.1418V17.8408H19.1059V17.9442H19.0699V18.0131H19.034V18.1164H18.9981V18.1853H18.9622V18.2886H18.9263V18.3575H18.8904V18.4264H18.8545V18.5297H18.8185V18.5986H18.7826V18.7019H18.7467V18.7708H18.7108V18.8741H18.6749V18.943H18.639V19.0463H18.6031V19.1152H18.5672V19.2185H18.5312V19.2874H18.4953V19.3563H18.4594V19.4596H18.4235V19.5285H18.3876V19.6318H18.3517V19.7007H18.3158V19.804H18.2799V19.8729H18.2439V19.9762H18.208V20.0451H18.1721V20.1484H18.1362V20.2173H18.1003V20.2862H18.0644V20.3895H18.0285V20.4584H17.9925V20.5617H17.9566V20.6306H17.9207V20.734H17.8848V20.8028H17.8489V20.9062H17.813V20.975H17.7771V21.0784H17.7412V21.1473H17.7052V21.2161H17.6693V21.3195H17.6334V21.3884H17.5975V21.4917H17.5616V21.5606H17.5257V21.6639H17.4898V21.7328H17.4538V21.8361H17.4179V21.905H17.382V22.0083H17.3461V22.0772H17.3102V22.1461H17.2743V22.2494H17.2384V22.3183H17.2025V22.4216H17.1665V22.4905H17.1306V22.5938H17.0947V22.6627H17.0588V22.766H17.0229V22.8349H16.987V22.9382H16.9511V23.0071H16.9151V23.076H16.8792V23.1793H16.8433V23.2482H16.8074V23.3515H16.7715V23.4204H16.7356V23.5237H16.6997V23.5926H16.6638V23.696H16.6278V23.7648H16.5919V23.8682H16.556V23.937H16.5201V24.0059H16.4842V24.1093H16.4483V24.1781H16.4124V24.2815H16.3764V24.3504H16.3405V24.4537H16.3046V24.5226H16.2687V24.6259H16.2328V24.6948H16.1969V24.7981H16.161V24.867H16.1251V24.9359H16.0891V25.0392H16.0532V25.1081H16.0173V25.2114H15.9814V25.2803H15.9455V25.3836H15.9096V25.4525H15.8737V25.5558H15.8377V25.6247H15.8018V25.728H15.7659V25.7969H15.73V25.8658H15.6941V25.9691H15.6582V26.038H15.6223V26.1413H15.5864V26.2102H15.5504V26.3135H15.5145V26.3824H15.4786V26.4857H15.4427V26.5546H15.4068V26.658H15.3709V26.7268H15.335V26.7957H15.299V26.899H15.2631V26.9679H15.2272V27.0713H15.1913V27.1401H15.1554V27.2435H15.1195V27.3123H15.0836V27.4157H15.0477V27.4846H15.0117V27.5879H14.9758V27.6568H14.9399V27.7257H14.904V27.829H14.8681V27.8979H14.8322V28.0012H14.7963V28.0701H14.7604V28.1734H14.7244V28.2423H14.6885V28.3456H14.6526V28.4145H14.6167V28.5178H14.5808V28.5867H14.5449V28.6556H14.509V28.7589H14.473V28.8278H14.4371V28.9311H14.4012V29" fill="url(#paint3_linear_4303_1567)"/>
<path d="M55.4319 17.5145C55.4319 18.4103 55.1115 19.128 54.4713 19.6851C53.8305 20.2421 52.9934 20.5177 51.9604 20.5177C50.387 20.5177 49.6009 19.8976 49.6009 18.6572C49.6009 18.0485 49.8251 17.5834 50.2749 17.256C50.724 16.9287 51.4994 16.6473 52.6006 16.4061C53.9492 16.0788 54.8931 15.786 55.4319 15.5275V17.5145ZM60.6897 20.8738V12.461C60.6897 10.3075 59.9594 8.71685 58.4992 7.69468C57.2402 6.78161 55.3761 6.32791 52.9038 6.32791C50.4321 6.32791 48.527 6.86773 47.1903 7.95881C45.8542 9.04416 45.1517 10.4166 45.0846 12.0647H50.1408C50.32 10.6291 51.2526 9.917 52.9376 9.917C54.5105 9.917 55.2972 10.5143 55.2972 11.7087C55.2972 12.2543 54.9887 12.6505 54.3704 12.8974C53.7516 13.1501 52.6006 13.374 50.915 13.5692C48.8474 13.8277 47.23 14.3445 46.0618 15.1197C44.893 15.8892 44.3086 17.1239 44.3086 18.818C44.3086 20.4316 44.8485 21.6835 45.9271 22.5736C47.0058 23.4637 48.4315 23.9117 50.2078 23.9117C52.5211 23.9117 54.2292 23.1479 55.331 21.6261H55.3986C55.5547 22.5621 55.7463 23.1824 55.9712 23.4867H61.2967V23.257C60.8926 22.9986 60.6897 22.2004 60.6897 20.8738" fill="#FDFCF7"/>
<path d="M65.3068 1.69363C64.3628 2.60669 63.8911 3.89875 63.8911 5.57557V6.78151H61.6663V10.1753H63.8911V23.4866H69.3851V10.1753H72.621V6.78151H69.3851V5.96611C69.3851 5.09899 69.6325 4.54196 70.1268 4.30077C70.6216 4.06533 71.4528 3.96761 72.621 4.00781V0.257987C69.1158 -0.0923087 66.6773 0.390066 65.3068 1.69363" fill="#FDFCF7"/>
<path d="M81.5433 1.49846H76.184V6.78162H73.8915V10.1123H76.184V19.0821C76.184 20.7762 76.661 21.9707 77.6162 22.6541C78.5715 23.3374 79.9254 23.682 81.678 23.682C83.0485 23.682 84.0482 23.5959 84.6783 23.4236V19.5358C84.6326 19.5358 84.4641 19.5416 84.1728 19.5531C83.8803 19.5646 83.6442 19.5702 83.4644 19.5702C82.8349 19.5702 82.3573 19.4497 82.0322 19.2143C81.7059 18.9731 81.5433 18.5482 81.5433 17.9394V10.1123H84.6783V6.78162H81.5433V1.49846" fill="#FDFCF7"/>
<path d="M90.5229 13.3403C90.9275 11.1639 92.1076 10.0786 94.062 10.0786C94.9602 10.0786 95.7078 10.3714 96.3035 10.9571C96.8985 11.5486 97.2409 12.3411 97.3311 13.3403H90.5229ZM99.8591 8.38454C98.2869 6.9891 96.3207 6.29423 93.9611 6.29423C91.3541 6.29423 89.2254 7.1326 87.5736 8.80368C85.9218 10.4805 85.0959 12.5766 85.0959 15.1033C85.0959 17.6932 85.9331 19.818 87.6074 21.4776C89.2805 23.1429 91.5119 23.9756 94.2975 23.9756C96.3877 23.9756 98.1848 23.4644 99.6906 22.4423C101.218 21.4201 102.185 20.1051 102.59 18.4972H97.2302C96.7354 19.6055 95.7808 20.1568 94.3651 20.1568C93.2634 20.1568 92.3876 19.8409 91.7362 19.1977C91.0842 18.5545 90.6689 17.6588 90.4885 16.5045H102.893C102.937 12.9154 101.926 10.2107 99.8591 8.38454" fill="#FDFCF7"/>
<path d="M109.786 9.39437H109.685V6.78151H104.426V23.4866H109.921V15.981C109.921 14.2008 110.414 12.8974 111.404 12.0819C112.392 11.2665 113.74 10.9794 115.448 11.2206H115.583V6.65522C115.38 6.56334 115.021 6.52309 114.504 6.52309C112.527 6.52309 110.954 7.47636 109.786 9.39437Z" fill="#FDFCF7"/>
<path d="M128.782 18.6748C128.186 19.4902 127.36 19.898 126.304 19.898C125.136 19.898 124.225 19.4788 123.574 18.6403C122.922 17.8077 122.596 16.6994 122.596 15.3327C122.596 13.9142 122.911 12.7715 123.54 11.8871C124.169 11.0085 125.057 10.5663 126.202 10.5663C127.349 10.5663 128.214 10.9912 128.799 11.8411C129.382 12.691 129.675 13.8511 129.675 15.3327C129.675 16.7453 129.377 17.8593 128.782 18.6748ZM127.855 6.29385C125.697 6.29385 123.956 7.13221 122.631 8.8033H122.53V6.78196H117.271V28.9999H122.765V21.7586H122.832C123.979 23.2574 125.607 24.0096 127.72 24.0096C129.989 24.0096 131.81 23.2057 133.18 21.592C134.551 19.9841 135.237 17.8307 135.237 15.1317C135.237 12.5705 134.567 10.4515 133.231 8.79186C131.894 7.12652 130.102 6.29385 127.855 6.29385" fill="#FDFCF7"/>
<path d="M142.261 9.39437H142.16V6.78151H136.902V23.4866H142.396V15.981C142.396 14.2008 142.89 12.8974 143.879 12.0819C144.867 11.2665 146.215 10.9794 147.924 11.2206H148.058V6.65522C147.856 6.56334 147.497 6.52309 146.98 6.52309C145.002 6.52309 143.429 7.47636 142.261 9.39437" fill="#FDFCF7"/>
<path d="M149.612 23.4866H155.106V6.78151H149.612V23.4866Z" fill="#FDFCF7"/>
<path d="M158.409 4.30197e-05H152.072L150.151 4.82379H154.331L158.409 4.30197e-05" fill="#FDFCF7"/>
<path d="M178.45 6.29339C176.136 6.29339 174.327 7.26961 173.024 9.22782H172.956C171.99 7.26961 170.373 6.29339 168.103 6.29339C165.811 6.29339 164.069 7.2524 162.879 9.16467H162.778V6.78151H157.52V23.4866H163.014V14.1205C163.014 13.0984 163.255 12.2771 163.738 11.6627C164.221 11.0425 164.889 10.7324 165.744 10.7324C167.362 10.7324 168.17 11.6741 168.17 13.5692V23.4866H173.664V14.1205C173.664 13.0984 173.906 12.2771 174.389 11.6627C174.873 11.0425 175.54 10.7324 176.395 10.7324C178.012 10.7324 178.821 11.6741 178.821 13.5692V23.4866H184.316V12.6216C184.316 10.6864 183.815 9.14749 182.815 8.00472C181.816 6.86195 180.361 6.29339 178.45 6.29339" fill="#FDFCF7"/>
<path d="M191.194 13.3403C191.599 11.1639 192.779 10.0786 194.733 10.0786C195.631 10.0786 196.379 10.3714 196.975 10.9571C197.57 11.5486 197.913 12.3411 198.003 13.3403H191.194ZM200.53 8.38454C198.958 6.9891 196.992 6.29423 194.632 6.29423C192.025 6.29423 189.897 7.1326 188.245 8.80368C186.594 10.4805 185.767 12.5766 185.767 15.1033C185.767 17.6932 186.604 19.818 188.279 21.4776C189.952 23.1429 192.183 23.9756 194.969 23.9756C197.059 23.9756 198.857 23.4644 200.362 22.4423C201.89 21.4201 202.857 20.1051 203.261 18.4972H197.902C197.407 19.6055 196.452 20.1568 195.036 20.1568C193.935 20.1568 193.059 19.8409 192.407 19.1977C191.755 18.5545 191.34 17.6588 191.16 16.5045H203.564C203.609 12.9154 202.598 10.2107 200.53 8.38454" fill="#FDFCF7"/>
<path d="M125.376 0.643438H118.563L117 4.75586H123.849L125.376 0.643438Z" fill="#FDFCF7"/>
<defs>
<linearGradient id="paint0_linear_4303_1567" x1="32.7428" y1="36.6633" x2="23.7367" y2="10.5449" gradientUnits="userSpaceOnUse">
<stop stop-color="#EC0689"/>
<stop offset="0.171548" stop-color="#EC0689"/>
<stop offset="0.769033" stop-color="#4449A6"/>
<stop offset="1" stop-color="#4449A6"/>
</linearGradient>
<linearGradient id="paint1_linear_4303_1567" x1="13.8494" y1="38.3957" x2="16.779" y2="1.30247" gradientUnits="userSpaceOnUse">
<stop stop-color="#EC0788"/>
<stop offset="0.314931" stop-color="#EC0788"/>
<stop offset="0.80538" stop-color="#4449A6"/>
<stop offset="1" stop-color="#4449A6"/>
</linearGradient>
<linearGradient id="paint2_linear_4303_1567" x1="0.00574612" y1="14.4965" x2="25.553" y2="14.4965" gradientUnits="userSpaceOnUse">
<stop stop-color="#EC0689"/>
<stop offset="0.315642" stop-color="#EC0689"/>
<stop offset="0.631285" stop-color="#FBC718"/>
<stop offset="0.837989" stop-color="#FBC718"/>
<stop offset="1" stop-color="#FBC718"/>
</linearGradient>
<linearGradient id="paint3_linear_4303_1567" x1="12.7794" y1="45.539" x2="12.7794" y2="-18.1037" gradientUnits="userSpaceOnUse">
<stop stop-color="#EC0689"/>
<stop offset="0.315642" stop-color="#EC0689"/>
<stop offset="0.631285" stop-color="#FBC718"/>
<stop offset="0.837989" stop-color="#FBC718"/>
<stop offset="1" stop-color="#FBC718"/>
</linearGradient>
</defs>
</svg>
