<svg width="29" height="28" viewBox="0 0 29 28" fill="none" xmlns="http://www.w3.org/2000/svg">
<path fill-rule="evenodd" clip-rule="evenodd" d="M13.4602 0.0263536C11.4298 0.220958 9.8864 0.652963 8.1997 1.49891C6.85968 2.17095 5.76976 2.96857 4.61899 4.11929C3.38832 5.35002 2.61619 6.43074 1.88008 7.95311C1.01721 9.73744 0.581159 11.513 0.509195 13.5351C0.426121 15.8691 0.906066 18.0905 1.94449 20.1785C2.67601 21.6493 3.42761 22.6899 4.61899 23.8813C5.8235 25.0858 6.86877 25.8379 8.34335 26.5613C9.37225 27.066 10.0366 27.3117 11.0796 27.5733C13.8167 28.2599 16.5618 28.1282 19.2359 27.1822C20.0465 26.8955 21.4615 26.1863 22.189 25.7023C24.1863 24.3731 25.837 22.538 26.93 20.4313C27.9188 18.5252 28.4136 16.634 28.4908 14.4655C28.5739 12.1315 28.0939 9.91015 27.0555 7.82215C26.3736 6.4511 25.6145 5.37656 24.5487 4.27367C23.3668 3.05055 22.2075 2.20668 20.6566 1.44041C19.0356 0.639501 17.5252 0.211983 15.7313 0.046219C15.1738 -0.00527792 13.9063 -0.0163873 13.4602 0.0263536ZM18.5403 7.79336C18.9575 7.93324 19.3786 8.17507 19.7067 8.4631L19.8983 8.63132L20.2775 8.53293C20.7335 8.41461 21.3371 8.17896 21.6554 7.99503C21.7842 7.9206 21.888 7.88804 21.888 7.92208C21.888 8.04072 21.5668 8.6183 21.3443 8.8997C21.2208 9.05599 20.9962 9.2761 20.8453 9.38878C20.6944 9.50146 20.5949 9.60166 20.6242 9.61146C20.7098 9.63997 21.7812 9.36749 22.0685 9.24414L22.331 9.13135L22.2326 9.30117C22.0953 9.53829 21.2312 10.4452 20.9703 10.6259L20.7543 10.7756L20.722 11.6081C20.6692 12.9709 20.3696 14.1088 19.7247 15.3958C18.4141 18.0111 16.0714 19.7696 13.2784 20.2347C11.209 20.5792 9.33082 20.3132 7.52246 19.4196C6.53581 18.932 6.53521 18.9541 7.53576 18.946C8.26772 18.94 8.47738 18.9181 8.92262 18.8009C9.80513 18.5687 10.6203 18.1963 11.2078 17.7572L11.3908 17.6204L11.1257 17.5862C10.7332 17.5355 10.1891 17.3534 9.84831 17.1586C9.44088 16.9257 8.87343 16.3432 8.66421 15.9431C8.36032 15.3618 8.33854 15.3958 9.0144 15.3958C9.81285 15.3958 9.92624 15.3433 9.46446 15.1874C9.26926 15.1214 8.98638 14.9958 8.83588 14.9081C8.45215 14.6846 7.88393 14.0895 7.67159 13.6888C7.47858 13.3245 7.2762 12.6221 7.2762 12.3166C7.2762 12.1573 7.29114 12.1345 7.37197 12.1701C7.64308 12.2895 8.20851 12.4588 8.4285 12.4864L8.67784 12.5177L8.26334 12.0961C7.60176 11.4232 7.31073 10.7137 7.31582 9.78642C7.31861 9.27544 7.38056 8.9837 7.58321 8.52729L7.71707 8.22586L8.41329 8.91239C9.72058 10.2014 11.2861 11.0498 12.995 11.3954C13.429 11.4831 14.3231 11.5869 14.3566 11.5534C14.3661 11.5438 14.3523 11.4071 14.326 11.2495C14.227 10.6583 14.408 9.78407 14.7504 9.19987C15.2021 8.42906 16.1337 7.78969 17.0033 7.65376C17.459 7.58245 18.0795 7.63882 18.5403 7.79336Z" fill="white"/>
</svg>
